<svg width="70" height="70" fill="none" xmlns="http://www.w3.org/2000/svg"><g clip-path="url(#a)"><path d="m34.277 30.41-6.933-6.933v-7.07h-5.469v9.335l8.535 8.535 3.867-3.867Zm14.942-5.8C49.219 11.04 38.179 0 24.609 0S0 11.04 0 24.61c0 13.569 11.04 24.609 24.61 24.609 13.569 0 24.609-11.04 24.609-24.61ZM21.875 43.553c-8.37-1.203-15.007-7.84-16.21-16.21h5.272v-5.469H5.665c1.203-8.37 7.84-15.007 16.21-16.21v5.272h5.469V5.665c8.37 1.203 15.007 7.84 16.21 16.21H38.28v5.469h5.273c-1.203 8.37-7.84 15.007-16.21 16.21V38.28h-5.469v5.273ZM61.797 20.78h-8.203v5.469h8.203a2.737 2.737 0 0 1 2.734 2.734v24.61a2.737 2.737 0 0 1-2.734 2.734H49.573l-4.182 5.054-4.183-5.054H28.984a2.737 2.737 0 0 1-2.734-2.734h-5.469c0 4.523 3.68 8.203 8.203 8.203h9.651L45.392 70l6.755-8.203h9.65c4.524 0 8.204-3.68 8.204-8.203v-24.61c0-4.523-3.68-8.203-8.203-8.203Z" fill="url(#b)"/></g><defs><linearGradient id="b" x1="35" y1="70" x2="35" y2="0" gradientUnits="userSpaceOnUse"><stop stop-color="#3FCAF0"/><stop offset="1" stop-color="#2FCB7C"/></linearGradient><clipPath id="a"><path fill="#fff" d="M0 0h70v70H0z"/></clipPath></defs></svg>