<svg width="12" height="11" fill="none" xmlns="http://www.w3.org/2000/svg"><mask id="a" fill="#fff"><path d="M9.992 8.026a.735.735 0 0 0-.216.59c.053.499.153.992.299 1.473-1.046-.238-1.685-.513-1.976-.658a.762.762 0 0 0-.532-.054 6.148 6.148 0 0 1-1.567.2C3.003 9.577.75 7.51.75 5.157S3.003.737 6 .737s5.25 2.068 5.25 4.42c0 1.081-.463 2.085-1.258 2.869Zm.37 2.877c.177.034.355.066.534.095.15.023.264-.13.205-.267a7.019 7.019 0 0 1-.183-.47l-.002-.007a7.579 7.579 0 0 1-.393-1.708C11.443 7.64 12 6.454 12 5.157 12 2.309 9.313 0 6 0S0 2.309 0 5.157s2.687 5.157 6 5.157a6.92 6.92 0 0 0 1.76-.226c.39.194 1.23.547 2.601.815Z"/></mask><path d="m9.992 8.026-.703-.712.703.712Zm-.216.59-.994.105-.001-.008.995-.097Zm.299 1.473.957-.29.5 1.647-1.679-.382.222-.975Zm-1.976-.658-.445.896.445-.896Zm-.532-.054.254.967-.254-.967ZM6 9.577v-1h.002l-.002 1Zm4.361 1.325-.19.982h-.001l.191-.982Zm.535.096-.155.988-.004-.001.159-.987Zm.205-.267-.918.397.918-.397Zm-.183-.47-.944.33-.007-.018-.006-.02.957-.291Zm-.002-.007.943-.33.007.019.006.02-.957.291Zm-.393-1.708-.996.097-.046-.475.34-.335.702.713ZM6 10.314v-1h.001l-.001 1Zm1.76-.226-.253-.967.362-.095.336.167-.445.896Zm2.934-1.35a.264.264 0 0 0 .062-.098l-1.879-.686c.089-.242.23-.46.412-.64l1.405 1.424Zm.062-.098a.274.274 0 0 0 .015-.121l-1.99.194a1.725 1.725 0 0 1 .096-.759l1.88.686Zm.015-.13c.046.437.133.868.26 1.289l-1.913.58a8.954 8.954 0 0 1-.336-1.658l1.989-.21Zm-.918 2.554c-1.124-.255-1.838-.558-2.2-.737l.892-1.791c.22.11.783.358 1.752.578l-.444 1.95Zm-2.2-.737a.238.238 0 0 0 .168.017L7.313 8.41c.412-.108.85-.064 1.232.126l-.891 1.79Zm.167.017a7.144 7.144 0 0 1-1.822.233l.004-2c.443 0 .884-.056 1.311-.168l.507 1.935ZM6 10.577c-3.408 0-6.25-2.384-6.25-5.42h2c0 1.669 1.664 3.42 4.25 3.42v2Zm-6.25-5.42c0-3.035 2.842-5.42 6.25-5.42v2c-2.586 0-4.25 1.752-4.25 3.42h-2ZM6-.263c3.408 0 6.25 2.385 6.25 5.42h-2c0-1.668-1.664-3.42-4.25-3.42v-2Zm6.25 5.42c0 1.38-.593 2.632-1.557 3.581L9.29 7.313c.628-.618.96-1.373.96-2.156h2Zm-1.698 4.764c.167.032.335.062.503.09l-.318 1.974c-.19-.03-.378-.064-.567-.1l.382-1.964Zm.5.089c-.656-.103-1.112.557-.87 1.118l1.837-.794c.36.835-.323 1.802-1.278 1.652l.31-1.976Zm-.87 1.117a8.046 8.046 0 0 1-.208-.536l1.888-.66c.047.137.1.271.157.404l-1.836.792Zm-.22-.573-.003-.008 1.913-.584.002.008-1.913.584Zm.01.031a8.574 8.574 0 0 1-.445-1.942l1.99-.194c.047.471.176 1.002.342 1.474l-1.887.662ZM9.82 7.833c.753-.74 1.18-1.678 1.18-2.676h2c0 1.595-.688 3.03-1.776 4.101L9.821 7.833ZM11 5.157C11 2.997 8.909 1 6 1v-2c3.718 0 7 2.62 7 6.157h-2ZM6 1C3.091 1 1 2.998 1 5.157h-2C-1 1.62 2.282-1 6-1v2ZM1 5.157c0 2.159 2.091 4.157 5 4.157v2c-3.718 0-7-2.62-7-6.157h2Zm5.001 4.157a5.91 5.91 0 0 0 1.506-.193l.507 1.935a7.908 7.908 0 0 1-2.015.258l.002-2Zm2.204-.121c.31.154 1.064.478 2.348.728l-.383 1.963c-1.46-.285-2.385-.666-2.855-.9l.89-1.791Z" fill="#939699" mask="url(#a)"/></svg>