<svg width="205" height="65" fill="none" xmlns="http://www.w3.org/2000/svg"><path d="M8.075 47.835c1.09.097 2.037.387 2.84.872a5.088 5.088 0 0 1 1.9 1.953c.45.817.675 1.786.675 2.907 0 1.122-.218 2.098-.654 2.93a4.984 4.984 0 0 1-1.86 1.952c-.803.47-1.77.754-2.9.851v4.819H6.317V59.3c-1.076-.097-2.023-.38-2.84-.851a5.088 5.088 0 0 1-1.9-1.953c-.45-.83-.675-1.807-.675-2.929 0-1.135.218-2.111.654-2.928a4.767 4.767 0 0 1 1.88-1.953c.817-.484 1.798-.768 2.942-.851v-4.487h1.696v4.487ZM6.38 49.35c-.83.083-1.512.298-2.043.644a3.14 3.14 0 0 0-1.185 1.412c-.245.596-.368 1.316-.368 2.16 0 .831.123 1.551.368 2.16a3.27 3.27 0 0 0 1.185 1.434c.531.346 1.212.56 2.043.644V49.35Zm1.696 8.454c.817-.097 1.485-.319 2.003-.665.53-.346.919-.817 1.164-1.412.259-.61.388-1.33.388-2.16 0-.831-.129-1.544-.388-2.14a3.141 3.141 0 0 0-1.185-1.412c-.518-.347-1.178-.561-1.982-.644v8.433Zm9.962-3.011c0 .124-.007.304-.02.54 0 .221-.007.464-.02.727l-.042.727a15.14 15.14 0 0 1-.04.54l5.864-9.326h2.206v11.133h-1.675v-7.436l.04-1.06c.015-.36.028-.63.042-.81l-5.823 9.306h-2.228V48.001h1.696v6.792ZM31.27 48v4.633h5.946V48h1.798v11.133h-1.798V54.17H31.27v4.964h-1.798V48.001h1.798Zm15.36-.186c1.334 0 2.322.298 2.962.893.64.596.96 1.544.96 2.846v7.581h-1.307l-.348-1.579h-.081c-.314.402-.64.741-.981 1.018a3.208 3.208 0 0 1-1.144.582c-.423.124-.94.187-1.553.187a4.341 4.341 0 0 1-1.778-.353 2.749 2.749 0 0 1-1.226-1.08c-.3-.499-.45-1.122-.45-1.87 0-1.108.43-1.96 1.288-2.555.858-.609 2.18-.941 3.964-.997l1.86-.062v-.665c0-.927-.198-1.571-.593-1.931-.395-.36-.954-.54-1.676-.54a4.94 4.94 0 0 0-1.634.27c-.518.166-1.002.36-1.451.581l-.552-1.37a7.795 7.795 0 0 1 1.696-.665 7.148 7.148 0 0 1 2.043-.291Zm.53 5.94c-1.361.056-2.308.277-2.84.665-.517.388-.776.935-.776 1.64 0 .624.184 1.081.552 1.372.381.29.865.436 1.45.436.927 0 1.696-.256 2.31-.768.612-.527.919-1.33.919-2.41v-.997l-1.614.062ZM55.733 48v4.633h5.946V48h1.798v11.133h-1.798V54.17h-5.946v4.964h-1.798V48.001h1.798Zm15.605 11.342c-.967 0-1.832-.201-2.595-.603-.75-.401-1.342-1.024-1.778-1.869-.422-.845-.633-1.925-.633-3.24 0-1.371.225-2.486.674-3.344.45-.859 1.056-1.489 1.819-1.89.776-.402 1.655-.603 2.635-.603a6.87 6.87 0 0 1 1.615.187c.517.11.94.25 1.266.416l-.551 1.516a10.512 10.512 0 0 0-1.145-.353 4.994 4.994 0 0 0-1.225-.166c-.736 0-1.342.159-1.819.477-.477.319-.83.79-1.063 1.413-.231.623-.347 1.398-.347 2.326 0 .886.116 1.64.347 2.264.232.623.58 1.094 1.043 1.412.463.319 1.042.478 1.736.478.6 0 1.124-.062 1.574-.187a7.58 7.58 0 0 0 1.266-.457v1.62c-.367.194-.776.34-1.225.437-.436.11-.968.166-1.594.166Zm14.946-5.795c0 .927-.123 1.751-.368 2.471a4.971 4.971 0 0 1-1.022 1.807 4.26 4.26 0 0 1-1.614 1.143c-.627.25-1.328.374-2.105.374a5.272 5.272 0 0 1-2.002-.374 4.527 4.527 0 0 1-1.594-1.143 5.478 5.478 0 0 1-1.062-1.807c-.245-.72-.368-1.544-.368-2.471 0-1.233.204-2.271.613-3.116.409-.858.994-1.51 1.757-1.952.763-.457 1.669-.686 2.718-.686.994 0 1.866.229 2.615.686.763.443 1.355 1.093 1.778 1.952.436.845.654 1.883.654 3.116Zm-8.276 0c0 .872.11 1.634.327 2.285.232.636.586 1.128 1.063 1.474.477.346 1.083.52 1.818.52.736 0 1.342-.174 1.819-.52.477-.346.824-.838 1.042-1.474.231-.651.347-1.413.347-2.285 0-.887-.116-1.641-.347-2.264-.232-.623-.586-1.101-1.063-1.434-.463-.346-1.069-.519-1.818-.519-1.117 0-1.928.374-2.432 1.122-.504.748-.756 1.78-.756 3.095Zm19.932-2.742c0 .692-.205 1.232-.613 1.62-.409.388-.933.65-1.574.79v.082a3.611 3.611 0 0 1 1.778.748c.504.388.756.997.756 1.828 0 .47-.089.907-.266 1.309a2.6 2.6 0 0 1-.776 1.038c-.354.29-.81.52-1.369.686-.559.152-1.233.228-2.023.228h-4.72V48.001h4.7c.776 0 1.47.09 2.084.27.626.166 1.117.457 1.471.872.368.402.552.956.552 1.662Zm-1.512 5.068c0-.637-.239-1.094-.715-1.37-.477-.278-1.179-.416-2.105-.416h-2.677v3.572h2.718c.899 0 1.587-.131 2.064-.394.476-.277.715-.741.715-1.392Zm-.307-4.84c0-.526-.19-.907-.572-1.142-.368-.25-.974-.374-1.818-.374h-2.8v3.053h2.473c.885 0 1.56-.124 2.023-.373.463-.25.694-.637.694-1.164Zm4.785 8.101V48.001h1.798v4.57h2.84c.954 0 1.737.117 2.35.352.613.236 1.069.589 1.369 1.06.299.457.449 1.038.449 1.745 0 .692-.15 1.294-.449 1.807-.286.512-.743.907-1.369 1.184-.613.277-1.424.415-2.432.415h-4.556Zm4.393-1.475c.776 0 1.41-.131 1.9-.394.491-.277.736-.755.736-1.434 0-.678-.225-1.135-.675-1.37-.449-.25-1.096-.374-1.941-.374h-2.615v3.572h2.595Zm6.232 1.475V48.001h1.798v11.133h-1.798Zm14.146-15.744c-.055.692-.225 1.274-.511 1.744-.273.471-.681.824-1.226 1.06-.545.235-1.253.353-2.125.353-.885 0-1.601-.118-2.145-.353-.532-.236-.92-.582-1.165-1.039-.245-.47-.395-1.06-.45-1.765h1.676c.068.747.259 1.253.572 1.516.327.25.844.374 1.553.374.626 0 1.117-.132 1.471-.395.368-.277.586-.775.654-1.495h1.696Zm-7.172 11.403c0 .124-.007.304-.021.54 0 .221-.006.464-.02.727l-.041.727c-.013.221-.027.401-.041.54l5.864-9.326h2.207v11.133h-1.675v-7.436l.041-1.06c.013-.36.027-.63.04-.81l-5.823 9.306h-2.227V48.001h1.696v6.792ZM147.027 48l-4.515 5.401 4.904 5.733h-2.044l-4.74-5.65v5.65h-1.675v-5.65l-4.741 5.65h-2.043l4.904-5.733-4.516-5.4h1.962l4.434 5.4v-5.4h1.675v5.4l4.454-5.4h1.941Zm.47 0h1.921l2.37 6.336c.136.374.259.734.368 1.08.123.346.232.686.327 1.018.095.318.17.63.225.934h.081c.082-.346.212-.796.389-1.35.177-.567.361-1.135.551-1.703l2.227-6.314h1.942l-4.72 12.67a8.256 8.256 0 0 1-.92 1.807c-.34.526-.763.928-1.267 1.205-.49.29-1.089.436-1.798.436-.327 0-.613-.02-.858-.062a5.543 5.543 0 0 1-.633-.104v-1.454c.15.028.327.055.531.083.218.028.443.041.674.041.422 0 .783-.082 1.083-.249.313-.152.579-.38.797-.685.218-.29.402-.637.552-1.039l.572-1.474L147.497 48Zm17.343-.207c1.348 0 2.431.478 3.249 1.433.83.956 1.246 2.396 1.246 4.32 0 1.26-.191 2.327-.572 3.2-.368.858-.892 1.509-1.573 1.952-.668.43-1.458.644-2.371.644a4.509 4.509 0 0 1-1.491-.229 4.116 4.116 0 0 1-1.124-.581c-.3-.25-.558-.52-.776-.81h-.123c.027.235.054.533.082.893.027.36.041.671.041.934v4.57h-1.799V48.001h1.472l.245 1.516h.082a4.65 4.65 0 0 1 .776-.872 3.59 3.59 0 0 1 1.103-.623c.436-.153.947-.229 1.533-.229Zm-.327 1.537c-.736 0-1.328.146-1.778.436-.449.277-.776.7-.981 1.267-.204.568-.313 1.288-.326 2.16v.354c0 .914.095 1.689.286 2.326.19.637.51 1.122.96 1.454.463.332 1.09.498 1.88.498.667 0 1.212-.187 1.634-.56.436-.374.756-.88.961-1.517.218-.65.327-1.391.327-2.222 0-1.274-.246-2.292-.736-3.053-.477-.762-1.219-1.143-2.227-1.143Zm9.485-1.33v4.633h5.946V48h1.798v11.133h-1.798V54.17h-5.946v4.964H172.2V48.001h1.798Zm15.36-.186c1.335 0 2.322.298 2.963.893.64.596.96 1.544.96 2.846v7.581h-1.308l-.347-1.579h-.082c-.313.402-.64.741-.981 1.018a3.207 3.207 0 0 1-1.144.582c-.422.124-.94.187-1.553.187a4.337 4.337 0 0 1-1.777-.353 2.744 2.744 0 0 1-1.226-1.08c-.3-.499-.45-1.122-.45-1.87 0-1.108.429-1.96 1.287-2.555.859-.609 2.18-.941 3.964-.997l1.86-.062v-.665c0-.927-.198-1.571-.593-1.931-.395-.36-.953-.54-1.675-.54-.572 0-1.117.09-1.635.27a10.73 10.73 0 0 0-1.451.581l-.551-1.37a7.78 7.78 0 0 1 1.696-.665 7.144 7.144 0 0 1 2.043-.291Zm.531 5.94c-1.362.056-2.309.277-2.84.665-.518.388-.776.935-.776 1.64 0 .624.183 1.081.551 1.372.382.29.865.436 1.451.436.926 0 1.696-.256 2.309-.768.613-.527.919-1.33.919-2.41v-.997l-1.614.062ZM205 59.134h-1.819v-9.617h-3.228c-.136 1.759-.306 3.261-.511 4.507-.204 1.233-.463 2.237-.776 3.012-.313.776-.688 1.343-1.124 1.703-.436.36-.947.54-1.532.54-.177 0-.355-.013-.532-.041a1.107 1.107 0 0 1-.408-.104v-1.37c.081.027.17.048.265.061.096.014.191.021.286.021.3 0 .573-.124.818-.374.245-.249.463-.63.654-1.142.204-.512.388-1.156.551-1.932a31.43 31.43 0 0 0 .429-2.783c.123-1.066.232-2.271.327-3.614h6.6v11.133ZM55.088 33.053V6.683h16.681v4.596H60.415v6.284h10.247v4.597H60.415v10.893h-5.327ZM80.679 6.682v26.372h-5.327V6.681h5.327Zm25.456 0v26.372h-4.601l-10.961-16.6h-.185v16.599h-5.326V6.681h4.674l10.875 16.585h.222V6.682h5.302Zm8.743 26.371h-5.708l8.698-26.37h6.864l8.686 26.37h-5.709l-6.31-20.345h-.197l-6.324 20.346Zm-.356-10.365h13.483v4.352h-13.483v-4.352Zm43.001-16.006v26.372h-4.601l-10.961-16.599h-.184v16.599h-5.327V6.681h4.675L152 23.267h.221V6.682h5.302Zm26.631 9.233h-5.388c-.099-.73-.3-1.378-.603-1.945a4.905 4.905 0 0 0-1.169-1.468 5.07 5.07 0 0 0-1.648-.927 6.051 6.051 0 0 0-2.006-.322c-1.304 0-2.439.34-3.407 1.018-.968.67-1.718 1.648-2.251 2.935-.533 1.28-.8 2.833-.8 4.662 0 1.88.267 3.46.8 4.738.541 1.28 1.295 2.245 2.263 2.898.968.652 2.087.978 3.359.978a6.37 6.37 0 0 0 1.98-.296 5.114 5.114 0 0 0 1.636-.863c.476-.386.87-.854 1.181-1.403a5.63 5.63 0 0 0 .665-1.88l5.388.026a10.556 10.556 0 0 1-1.046 3.502 10.465 10.465 0 0 1-2.226 3c-.927.876-2.034 1.571-3.322 2.086-1.279.507-2.727.76-4.343.76-2.247 0-4.256-.532-6.027-1.597-1.764-1.064-3.158-2.605-4.183-4.622-1.017-2.018-1.526-4.46-1.526-7.327 0-2.876.517-5.323 1.55-7.34 1.034-2.017 2.436-3.554 4.208-4.61 1.771-1.064 3.764-1.596 5.978-1.596 1.46 0 2.814.214 4.06.643a10.16 10.16 0 0 1 3.334 1.88 9.588 9.588 0 0 1 2.362 3c.615 1.185 1.009 2.542 1.181 4.07Zm3.82 17.138V6.683h16.976v4.596H193.3v6.284h10.777v4.597H193.3v6.296H205v4.598h-17.026Z" fill="#039BE5"/><path fill-rule="evenodd" clip-rule="evenodd" d="M.012 0h12.997v19.363c0 7.267.482 7.645 7.846 7.645h4.431v12.728H12.997C7.152 39.736 0 36.196 0 27.317L.012 0Z" fill="url(#a)"/><path fill-rule="evenodd" clip-rule="evenodd" d="M12.748 19.868c0 6.443.493 6.778 8.013 6.778h4.526V37.93h-1.681c-12.797-2.647-10.858-18.062-10.858-18.062Z" fill="#039BE5"/><path fill-rule="evenodd" clip-rule="evenodd" d="M42.444 39.736H29.31V20.373c0-7.27-.487-7.645-7.928-7.645h-4.223V0H29.31c5.91 0 13.135 3.54 13.135 12.416v27.32Z" fill="url(#b)"/><path fill-rule="evenodd" clip-rule="evenodd" d="M28.798 19.868c0-7.09-.466-7.456-7.595-7.456h-4.045V0h1.36c12.123 2.913 10.28 19.868 10.28 19.868Z" fill="#039BE5"/><defs><linearGradient id="a" x1=".3" y1="23.639" x2="25.172" y2="23.639" gradientUnits="userSpaceOnUse"><stop stop-color="#40CAF5"/><stop offset="1" stop-color="#2ECC71"/></linearGradient><linearGradient id="b" x1="17.458" y1="23.639" x2="42.331" y2="23.639" gradientUnits="userSpaceOnUse"><stop stop-color="#40CAF5"/><stop offset="1" stop-color="#2ECC71"/></linearGradient></defs></svg>