<svg width="11" height="10" fill="none" xmlns="http://www.w3.org/2000/svg"><path d="m5.162 1.786.338.535.338-.535.348-.551C6.696.68 7.271.4 7.946.4c.696 0 1.357.299 1.863.86l.297-.268-.297.268c1.051 1.165 1.055 3.074.01 4.242L5.561 9.557l-.011.01-.01.012a.07.07 0 0 1-.024.018.033.033 0 0 1-.02.002H5.49a.04.04 0 0 1-.012-.006.069.069 0 0 1-.017-.014l-.01-.011-.012-.01-4.258-4.056C.136 4.334.14 2.425 1.19 1.26L.903 1l.288.26C1.697.699 2.358.4 3.055.4c.674 0 1.25.28 1.759.835l.348.55Z" stroke="#939699" stroke-width=".8"/></svg>