<svg width="23" height="30" fill="none" xmlns="http://www.w3.org/2000/svg"><path d="M19.061 16.762c-.982 1.992-2.314 3.976-3.675 5.757a59.078 59.078 0 0 1-4.136 4.819 59.033 59.033 0 0 1-4.136-4.82c-1.361-1.78-2.693-3.764-3.675-5.756-.994-2.011-1.564-3.896-1.564-5.512a9.375 9.375 0 0 1 18.75 0c0 1.616-.572 3.5-1.564 5.512ZM11.25 30S22.5 19.339 22.5 11.25a11.25 11.25 0 0 0-22.5 0C0 19.339 11.25 30 11.25 30Z" fill="#039BE5"/><path d="M11.25 15a3.75 3.75 0 1 1 0-7.5 3.75 3.75 0 0 1 0 7.5Zm0 1.875a5.625 5.625 0 1 0 0-11.25 5.625 5.625 0 0 0 0 11.25Z" fill="#039BE5"/></svg>