<svg width="15" height="20" fill="none" xmlns="http://www.w3.org/2000/svg"><path d="M12.707 11.175c-.655 1.327-1.542 2.65-2.45 3.837A39.372 39.372 0 0 1 7.5 18.226a39.362 39.362 0 0 1-2.758-3.213c-.907-1.187-1.795-2.51-2.45-3.837C1.63 9.834 1.25 8.577 1.25 7.5a6.25 6.25 0 0 1 12.5 0c0 1.078-.381 2.334-1.043 3.675ZM7.5 20S15 12.893 15 7.5a7.5 7.5 0 0 0-15 0C0 12.893 7.5 20 7.5 20Z" fill="#039BE5"/><path d="M7.5 10a2.5 2.5 0 1 1 0-5 2.5 2.5 0 0 1 0 5Zm0 1.25a3.75 3.75 0 1 0 0-7.5 3.75 3.75 0 0 0 0 7.5Z" fill="#039BE5"/></svg>