<svg width="137" height="43" fill="none" xmlns="http://www.w3.org/2000/svg"><path d="M5.396 31.968c.729.064 1.361.259 1.898.583a3.4 3.4 0 0 1 1.27 1.304c.3.546.451 1.194.451 1.944s-.146 1.402-.437 1.957a3.33 3.33 0 0 1-1.243 1.305c-.537.314-1.183.504-1.939.569v3.22H4.222v-3.22c-.72-.065-1.352-.255-1.898-.57a3.4 3.4 0 0 1-1.27-1.304c-.3-.555-.45-1.208-.45-1.957 0-.76.145-1.411.436-1.957.292-.556.71-.99 1.257-1.305.546-.324 1.201-.514 1.966-.57V28.97h1.133v2.998ZM4.263 32.98c-.555.055-1.01.199-1.365.43a2.099 2.099 0 0 0-.792.944c-.164.398-.246.88-.246 1.444 0 .555.082 1.036.246 1.443.173.398.437.718.792.958.355.231.81.375 1.365.43v-5.65Zm1.133 5.65c.547-.065.993-.213 1.339-.445.355-.231.614-.546.778-.944.173-.407.26-.888.26-1.443 0-.556-.087-1.032-.26-1.43a2.098 2.098 0 0 0-.792-.944c-.346-.231-.788-.375-1.325-.43v5.636Zm6.659-2.012c0 .083-.005.203-.014.36 0 .149-.005.31-.014.486L12 37.95c-.01.148-.018.269-.027.361l3.919-6.232h1.474v7.44h-1.12v-4.97l.028-.707c.01-.241.018-.422.027-.542l-3.891 6.22h-1.49v-7.44h1.134v4.539Zm8.842-4.539v3.095h3.974V32.08h1.202v7.44H24.87V36.2h-3.974v3.318h-1.201v-7.44h1.201Zm10.265-.125c.892 0 1.552.199 1.98.597.428.398.642 1.031.642 1.901v5.067h-.874l-.232-1.055h-.055c-.21.268-.428.495-.655.68a2.145 2.145 0 0 1-.765.389 3.71 3.71 0 0 1-1.038.125c-.437 0-.833-.079-1.188-.236a1.838 1.838 0 0 1-.82-.722c-.2-.333-.3-.75-.3-1.25 0-.74.287-1.309.86-1.707.574-.407 1.457-.63 2.65-.666l1.242-.042v-.444c0-.62-.132-1.05-.396-1.29-.264-.242-.637-.362-1.12-.362-.382 0-.746.06-1.092.18a7.1 7.1 0 0 0-.97.39l-.368-.917a5.208 5.208 0 0 1 1.134-.444c.436-.13.892-.194 1.365-.194Zm.355 3.97c-.91.037-1.543.185-1.898.444-.346.259-.519.624-.519 1.096 0 .417.123.722.369.917.255.194.578.291.97.291.618 0 1.133-.171 1.542-.514.41-.351.615-.888.615-1.61v-.666l-1.079.042Zm5.729-3.845v3.095h3.973V32.08h1.202v7.44H41.22V36.2h-3.973v3.318h-1.202v-7.44h1.202Zm10.428 7.579c-.646 0-1.224-.135-1.734-.403-.5-.268-.896-.685-1.188-1.25-.282-.564-.423-1.286-.423-2.165 0-.916.15-1.66.45-2.235.301-.573.706-.994 1.216-1.263.519-.268 1.106-.402 1.761-.402.374 0 .733.041 1.08.125.345.074.627.166.846.277l-.369 1.014a7.011 7.011 0 0 0-.765-.236 3.332 3.332 0 0 0-.819-.111c-.492 0-.897.106-1.215.319-.319.213-.556.527-.71.944-.155.416-.232.934-.232 1.555 0 .592.077 1.096.232 1.513.154.416.387.73.696.943.31.213.697.32 1.16.32.401 0 .752-.042 1.052-.125a5.06 5.06 0 0 0 .847-.306v1.083a3.19 3.19 0 0 1-.82.292 4.388 4.388 0 0 1-1.065.11Zm9.989-3.873c0 .62-.082 1.17-.246 1.652a3.322 3.322 0 0 1-.683 1.207 2.83 2.83 0 0 1-1.079.764c-.418.166-.887.25-1.406.25-.483 0-.929-.084-1.338-.25a3.024 3.024 0 0 1-1.065-.764 3.661 3.661 0 0 1-.71-1.207c-.164-.481-.246-1.032-.246-1.652 0-.824.136-1.518.41-2.082.273-.574.664-1.009 1.174-1.305.51-.306 1.115-.458 1.816-.458.664 0 1.247.152 1.748.458.51.296.905.73 1.188 1.305.29.564.437 1.258.437 2.082Zm-5.53 0c0 .583.072 1.092.218 1.527.155.425.391.754.71.985.319.232.724.347 1.215.347.492 0 .897-.115 1.215-.347.32-.231.551-.56.697-.985.155-.435.232-.944.232-1.527 0-.592-.077-1.097-.232-1.513-.155-.417-.392-.736-.71-.958-.31-.231-.715-.347-1.215-.347-.747 0-1.289.25-1.625.75-.337.5-.506 1.189-.506 2.068Zm13.319-1.832c0 .462-.136.823-.41 1.082-.273.26-.623.435-1.05.528v.055c.454.065.85.232 1.187.5.337.26.505.666.505 1.221 0 .315-.059.607-.177.875-.11.268-.282.5-.519.694a2.59 2.59 0 0 1-.915.458c-.373.102-.824.153-1.352.153h-3.154v-7.44h3.14c.52 0 .984.06 1.393.18.42.111.747.305.984.583.245.268.368.639.368 1.11Zm-1.01 3.386c0-.425-.16-.73-.478-.916-.319-.185-.788-.277-1.407-.277H60.77v2.387h1.816c.6 0 1.06-.088 1.379-.264.319-.184.478-.494.478-.93Zm-.205-3.234c0-.351-.127-.606-.382-.763-.246-.167-.651-.25-1.216-.25h-1.87v2.04h1.652c.592 0 1.042-.083 1.352-.25a.825.825 0 0 0 .464-.777Zm3.198 5.414v-7.44h1.201v3.053h1.898c.637 0 1.16.08 1.57.236.41.158.715.394.915.708.2.306.3.694.3 1.166 0 .463-.1.866-.3 1.208-.19.342-.496.606-.914.791-.41.185-.952.278-1.625.278h-3.045Zm2.935-.986c.52 0 .943-.088 1.27-.264.328-.184.492-.504.492-.957 0-.454-.15-.76-.45-.916-.301-.167-.734-.25-1.298-.25h-1.748v2.387h1.734Zm4.165.986v-7.44h1.202v7.44h-1.202Zm9.454-10.522c-.037.463-.15.851-.342 1.166-.182.315-.455.55-.819.708-.364.157-.837.236-1.42.236-.592 0-1.07-.079-1.434-.236a1.568 1.568 0 0 1-.778-.694c-.164-.315-.264-.708-.3-1.18h1.12c.045.5.172.837.381 1.013.219.167.565.25 1.038.25.419 0 .747-.088.983-.264.246-.185.392-.518.437-.999h1.134Zm-4.793 7.62c0 .084-.005.204-.014.362 0 .148-.004.31-.013.485l-.028.486a10.32 10.32 0 0 1-.027.361l3.919-6.232h1.475v7.44h-1.12v-4.97l.027-.707c.01-.241.018-.422.028-.542l-3.893 6.22h-1.489v-7.44h1.134v4.539Zm19.061-4.538-3.017 3.609 3.277 3.83H97.15l-3.168-3.775v3.776h-1.12v-3.776l-3.167 3.776H88.33l3.277-3.831-3.017-3.61h1.31l2.964 3.61v-3.61h1.12v3.61l2.976-3.61h1.297Zm.314 0h1.284l1.584 4.233c.091.25.173.49.246.722.082.232.154.458.218.68.064.213.114.421.15.625h.055c.055-.231.141-.532.259-.902.119-.38.242-.76.369-1.139l1.489-4.22h1.297l-3.155 8.468a5.495 5.495 0 0 1-.614 1.208 2.36 2.36 0 0 1-.847.805c-.327.194-.728.291-1.201.291a3.48 3.48 0 0 1-.574-.041 3.714 3.714 0 0 1-.423-.07v-.971c.1.018.218.037.355.055.146.019.296.028.45.028.283 0 .524-.056.724-.167.21-.101.387-.254.533-.458.145-.194.268-.425.368-.694l.383-.985-2.95-7.468Zm11.59-.139c.901 0 1.625.319 2.171.958.556.638.833 1.6.833 2.887 0 .842-.127 1.555-.382 2.138-.246.573-.596 1.008-1.051 1.304-.447.287-.975.43-1.584.43a3.01 3.01 0 0 1-.997-.152 2.737 2.737 0 0 1-.751-.389 3.153 3.153 0 0 1-.519-.541h-.082c.018.157.036.356.055.597.018.24.027.449.027.625v3.053h-1.202V32.08h.983l.164 1.013h.055a3.07 3.07 0 0 1 .519-.583c.209-.176.455-.315.737-.416a3.106 3.106 0 0 1 1.024-.153Zm-.218 1.027c-.492 0-.888.097-1.188.291-.301.186-.519.468-.656.847-.136.38-.209.86-.218 1.444v.236c0 .61.064 1.129.191 1.555.127.425.341.75.642.971.309.222.728.333 1.256.333.446 0 .81-.125 1.092-.374.292-.25.506-.588.642-1.014.146-.435.219-.93.219-1.485 0-.851-.164-1.532-.492-2.04-.318-.51-.815-.764-1.488-.764Zm6.339-.888v3.095h3.973V32.08h1.202v7.44h-1.202V36.2h-3.973v3.318h-1.202v-7.44h1.202Zm10.265-.125c.892 0 1.552.199 1.979.597.428.398.642 1.031.642 1.901v5.067h-.874l-.232-1.055h-.054c-.21.268-.428.495-.656.68a2.137 2.137 0 0 1-.765.389 3.707 3.707 0 0 1-1.037.125c-.437 0-.833-.079-1.188-.236a1.843 1.843 0 0 1-.82-.722c-.2-.333-.3-.75-.3-1.25 0-.74.287-1.309.86-1.707.574-.407 1.457-.63 2.649-.666l1.243-.042v-.444c0-.62-.132-1.05-.396-1.29-.264-.242-.637-.362-1.12-.362-.382 0-.746.06-1.092.18a7.134 7.134 0 0 0-.97.39l-.368-.917a5.192 5.192 0 0 1 1.133-.444c.437-.13.892-.194 1.366-.194Zm.355 3.97c-.911.037-1.543.185-1.899.444-.345.259-.518.624-.518 1.096 0 .417.122.722.368.917.255.194.578.291.97.291.619 0 1.133-.171 1.543-.514.409-.351.614-.888.614-1.61v-.666l-1.078.042ZM137 39.519h-1.215v-6.427h-2.158a36.567 36.567 0 0 1-.341 3.012c-.137.824-.31 1.495-.519 2.013-.209.518-.46.898-.751 1.138-.291.24-.633.361-1.024.361-.119 0-.237-.01-.355-.028a.74.74 0 0 1-.273-.07v-.915a.973.973 0 0 0 .177.041c.064.01.128.014.191.014.201 0 .383-.083.547-.25.163-.166.309-.42.437-.763.136-.343.259-.773.368-1.291.109-.527.205-1.148.287-1.86a54.97 54.97 0 0 0 .218-2.415H137v7.44Z" fill="#039BE5"/><path d="M36.815 22.09V4.465h11.148v3.072h-7.589v4.2h6.849v3.071h-6.849v7.28h-3.56ZM53.917 4.466v17.623h-3.56V4.466h3.56Zm17.012 0v17.623h-3.075L60.53 10.997h-.123v11.092h-3.56V4.466h3.124l7.267 11.083h.148V4.466h3.544Zm5.843 17.624h-3.815L78.77 4.465h4.587l5.805 17.623h-3.815L81.129 8.493h-.131l-4.226 13.596Zm-.238-6.928h9.01v2.909h-9.01v-2.909Zm28.737-10.696v17.623h-3.074l-7.326-11.092h-.123v11.092h-3.56V4.466h3.124l7.268 11.083h.148V4.466h3.543Zm17.797 6.17h-3.6a3.83 3.83 0 0 0-.403-1.3 3.277 3.277 0 0 0-1.883-1.6 4.042 4.042 0 0 0-1.34-.216c-.872 0-1.631.227-2.277.68-.647.448-1.149 1.102-1.505 1.962-.356.855-.534 1.893-.534 3.115 0 1.257.178 2.313.534 3.167.362.855.866 1.5 1.513 1.937.647.436 1.395.654 2.244.654.477 0 .918-.067 1.324-.198a3.421 3.421 0 0 0 1.093-.577 3.28 3.28 0 0 0 .79-.938c.213-.367.361-.786.444-1.256l3.6.017a7.061 7.061 0 0 1-.698 2.34 7.031 7.031 0 0 1-1.488 2.006 6.964 6.964 0 0 1-2.22 1.394c-.855.338-1.823.507-2.902.507-1.502 0-2.845-.355-4.029-1.067-1.178-.711-2.11-1.74-2.795-3.09-.68-1.347-1.019-2.98-1.019-4.895 0-1.922.345-3.557 1.035-4.906.691-1.348 1.628-2.375 2.812-3.08 1.184-.712 2.516-1.067 3.996-1.067.975 0 1.88.143 2.713.43a6.797 6.797 0 0 1 2.228 1.256 6.41 6.41 0 0 1 1.578 2.005c.411.792.674 1.698.789 2.72Zm2.553 11.454V4.465h11.346v3.072h-7.786v4.2h7.202v3.071h-7.202v4.208h7.818v3.072h-11.378Z" fill="#0D0D0D"/><path fill-rule="evenodd" clip-rule="evenodd" d="M.008 0h8.686v12.94c0 4.857.322 5.11 5.243 5.11H16.9v8.505H8.686C4.78 26.555 0 24.19 0 18.255L.008 0Z" fill="url(#a)"/><path fill-rule="evenodd" clip-rule="evenodd" d="M8.52 13.277c0 4.306.328 4.53 5.354 4.53H16.9v7.54h-1.124C7.223 23.58 8.52 13.278 8.52 13.278Z" fill="#039BE5"/><path fill-rule="evenodd" clip-rule="evenodd" d="M28.366 26.555h-8.779v-12.94c0-4.858-.325-5.11-5.298-5.11h-2.822V0h8.12c3.95 0 8.779 2.365 8.779 8.298v18.257Z" fill="url(#b)"/><path fill-rule="evenodd" clip-rule="evenodd" d="M19.246 13.277c0-4.737-.312-4.982-5.076-4.982h-2.703V0h.909c8.101 1.947 6.87 13.277 6.87 13.277Z" fill="#039BE5"/><defs><linearGradient id="a" x1=".2" y1="15.798" x2="16.823" y2="15.798" gradientUnits="userSpaceOnUse"><stop stop-color="#40CAF5"/><stop offset="1" stop-color="#2ECC71"/></linearGradient><linearGradient id="b" x1="11.667" y1="15.798" x2="28.289" y2="15.798" gradientUnits="userSpaceOnUse"><stop stop-color="#40CAF5"/><stop offset="1" stop-color="#2ECC71"/></linearGradient></defs></svg>