<svg width="46" height="45" fill="none" xmlns="http://www.w3.org/2000/svg"><path d="M22.64 45c12.43 0 22.5-10.07 22.5-22.5S35.07 0 22.64 0C10.212 0 .14 10.07.14 22.5S10.212 45 22.64 45ZM10.437 22.012l21.694-8.364c1.007-.364 1.886.246 1.56 1.768l.002-.002-3.694 17.402c-.274 1.234-1.007 1.534-2.032.953l-5.625-4.146-2.713 2.614c-.3.3-.554.553-1.135.553l.4-5.724 10.424-9.418c.454-.4-.1-.625-.699-.227l-12.883 8.11-5.554-1.732c-1.205-.382-1.232-1.205.255-1.787Z" fill="url(#a)"/><defs><linearGradient id="a" x1="22.641" y1="0" x2="22.641" y2="45" gradientUnits="userSpaceOnUse"><stop stop-color="#40CAF5"/><stop offset="1" stop-color="#2ECC71"/></linearGradient></defs></svg>