<svg width="46" height="46" fill="none" xmlns="http://www.w3.org/2000/svg"><path d="M22.57 0C10.107 0 0 10.105 0 22.57c0 12.466 10.106 22.571 22.57 22.571 12.466 0 22.571-10.105 22.571-22.57C45.141 10.105 35.036 0 22.571 0Zm11.45 25.012c1.052 1.027 2.164 1.994 3.109 3.128.418.502.813 1.02 1.113 1.603.428.832.041 1.744-.703 1.794l-4.624-.001c-1.194.098-2.145-.383-2.946-1.2-.64-.65-1.233-1.345-1.849-2.018-.252-.276-.517-.536-.832-.741-.63-.41-1.179-.285-1.54.374-.368.67-.452 1.413-.487 2.159-.05 1.09-.38 1.375-1.473 1.426-2.338.11-4.556-.245-6.617-1.424-1.819-1.04-3.226-2.506-4.453-4.167-2.388-3.239-4.218-6.793-5.861-10.449-.37-.823-.1-1.264.809-1.28 1.51-.03 3.018-.026 4.527-.002.615.01 1.021.361 1.257.94.816 2.007 1.815 3.916 3.068 5.687.334.471.675.941 1.16 1.274.536.368.944.246 1.197-.352.161-.38.231-.786.266-1.193.12-1.396.135-2.79-.073-4.18-.13-.87-.619-1.43-1.485-1.595-.442-.084-.377-.247-.162-.5.372-.435.721-.705 1.42-.705l5.223-.001c.824.162 1.009.531 1.12 1.36l.005 5.806c-.01.321.161 1.273.738 1.483.461.152.766-.218 1.042-.51 1.253-1.33 2.146-2.9 2.945-4.524.353-.716.657-1.457.953-2.2.22-.549.561-.819 1.181-.81l5.031.006c.148 0 .299.002.446.027.848.145 1.08.51.818 1.337-.413 1.3-1.216 2.382-2 3.467-.84 1.162-1.736 2.284-2.569 3.45-.764 1.067-.704 1.604.246 2.53Z" fill="url(#a)"/><defs><linearGradient id="a" x1="22.571" y1="0" x2="22.571" y2="45.141" gradientUnits="userSpaceOnUse"><stop stop-color="#40CAF5"/><stop offset="1" stop-color="#2ECC71"/></linearGradient></defs></svg>