<svg width="7" height="13" viewBox="0 0 7 13" fill="none" xmlns="http://www.w3.org/2000/svg">
<path fill-rule="evenodd" clip-rule="evenodd" d="M0.472871 0.473359C0.517093 0.429025 0.569628 0.39385 0.627466 0.36985C0.685304 0.34585 0.747308 0.333496 0.809928 0.333496C0.872547 0.333496 0.934552 0.34585 0.992389 0.36985C1.05023 0.39385 1.10276 0.429025 1.14698 0.473359L6.85981 6.18619C6.90415 6.23041 6.93932 6.28294 6.96332 6.34078C6.98732 6.39862 6.99967 6.46062 6.99967 6.52324C6.99967 6.58586 6.98732 6.64787 6.96332 6.7057C6.93932 6.76354 6.90415 6.81608 6.85981 6.8603L1.14698 12.5731C1.05759 12.6625 0.936348 12.7127 0.809928 12.7127C0.683507 12.7127 0.562264 12.6625 0.472871 12.5731C0.383478 12.4837 0.333257 12.3625 0.333257 12.2361C0.333257 12.1096 0.383478 11.9884 0.472871 11.899L5.84959 6.52324L0.472871 1.14747C0.428536 1.10325 0.393361 1.05072 0.369361 0.992878C0.345361 0.93504 0.333008 0.873036 0.333008 0.810416C0.333008 0.747797 0.345361 0.685792 0.369361 0.627955C0.393361 0.570117 0.428536 0.517582 0.472871 0.473359Z" fill="#039BE5"/>
</svg>
