<svg width="7" height="13" viewBox="0 0 7 13" fill="none" xmlns="http://www.w3.org/2000/svg">
<path fill-rule="evenodd" clip-rule="evenodd" d="M6.52713 0.473359C6.48291 0.429025 6.43037 0.39385 6.37253 0.36985C6.3147 0.34585 6.25269 0.333496 6.19007 0.333496C6.12745 0.333496 6.06545 0.34585 6.00761 0.36985C5.94977 0.39385 5.89724 0.429025 5.85302 0.473359L0.140189 6.18619C0.0958538 6.23041 0.0606794 6.28294 0.0366797 6.34078C0.0126796 6.39862 0.00032568 6.46062 0.00032568 6.52324C0.00032568 6.58586 0.0126796 6.64787 0.0366797 6.7057C0.0606794 6.76354 0.0958538 6.81608 0.140189 6.8603L5.85302 12.5731C5.94241 12.6625 6.06365 12.7127 6.19007 12.7127C6.31649 12.7127 6.43774 12.6625 6.52713 12.5731C6.61652 12.4837 6.66674 12.3625 6.66674 12.2361C6.66674 12.1096 6.61652 11.9884 6.52713 11.899L1.15041 6.52324L6.52713 1.14747C6.57146 1.10325 6.60664 1.05072 6.63064 0.992878C6.65464 0.93504 6.66699 0.873036 6.66699 0.810416C6.66699 0.747797 6.65464 0.685792 6.63064 0.627955C6.60664 0.570117 6.57146 0.517582 6.52713 0.473359Z" fill="#039BE5"/>
</svg>
