<svg width="31" height="30" viewBox="0 0 31 30" fill="none" xmlns="http://www.w3.org/2000/svg">
<path d="M21.125 11.25C21.125 12.7418 20.5324 14.1726 19.4775 15.2275C18.4226 16.2824 16.9918 16.875 15.5 16.875C14.0082 16.875 12.5774 16.2824 11.5225 15.2275C10.4676 14.1726 9.875 12.7418 9.875 11.25C9.875 9.75816 10.4676 8.32742 11.5225 7.27252C12.5774 6.21763 14.0082 5.625 15.5 5.625C16.9918 5.625 18.4226 6.21763 19.4775 7.27252C20.5324 8.32742 21.125 9.75816 21.125 11.25Z" fill="#039BE5"/>
<path fill-rule="evenodd" clip-rule="evenodd" d="M0.5 15C0.5 11.0218 2.08035 7.20644 4.8934 4.3934C7.70644 1.58035 11.5218 0 15.5 0C19.4782 0 23.2936 1.58035 26.1066 4.3934C28.9196 7.20644 30.5 11.0218 30.5 15C30.5 18.9782 28.9196 22.7936 26.1066 25.6066C23.2936 28.4196 19.4782 30 15.5 30C11.5218 30 7.70644 28.4196 4.8934 25.6066C2.08035 22.7936 0.5 18.9782 0.5 15ZM15.5 1.875C13.0283 1.87513 10.6069 2.57318 8.51451 3.8888C6.42207 5.20442 4.74366 7.08414 3.67243 9.31161C2.60121 11.5391 2.18072 14.0238 2.45937 16.4797C2.73802 18.9356 3.70447 21.2629 5.2475 23.1938C6.57875 21.0487 9.50938 18.75 15.5 18.75C21.4906 18.75 24.4194 21.0469 25.7525 23.1938C27.2955 21.2629 28.262 18.9356 28.5406 16.4797C28.8193 14.0238 28.3988 11.5391 27.3276 9.31161C26.2563 7.08414 24.5779 5.20442 22.4855 3.8888C20.3931 2.57318 17.9717 1.87513 15.5 1.875Z" fill="#039BE5"/>
</svg>
