<svg width="12" height="11" viewBox="0 0 12 11" fill="none" xmlns="http://www.w3.org/2000/svg">
<mask id="path-1-inside-1_2_6457" fill="white">
<path d="M9.9915 8.0257C9.91365 8.10246 9.854 8.19514 9.81679 8.29714C9.77959 8.39914 9.76574 8.50795 9.77625 8.6158C9.82896 9.11498 9.92889 9.60825 10.0748 10.0892C9.0285 9.85126 8.3895 9.57573 8.09925 9.43134C7.93462 9.34944 7.74503 9.33003 7.56675 9.37682C7.05567 9.51066 6.52893 9.57803 6 9.57721C3.003 9.57721 0.75 7.50927 0.75 5.15696C0.75 2.80539 3.003 0.736708 6 0.736708C8.997 0.736708 11.25 2.80539 11.25 5.15696C11.25 6.23845 10.7873 7.24184 9.9915 8.0257ZM10.3613 10.9025C10.5389 10.9371 10.7172 10.9688 10.896 10.9976C11.046 11.0212 11.16 10.8679 11.1008 10.7309C11.0342 10.5766 10.9731 10.4201 10.9178 10.2616L10.9155 10.2542C10.7295 9.72381 10.578 9.11382 10.5225 8.54582C11.4427 7.63967 12 6.45356 12 5.15696C12 2.30884 9.3135 0 6 0C2.6865 0 0 2.30884 0 5.15696C0 8.00507 2.6865 10.3139 6 10.3139C6.59426 10.3147 7.18606 10.2389 7.76025 10.0885C8.15025 10.2822 8.9895 10.6351 10.3613 10.9025Z"/>
</mask>
<path d="M9.9915 8.0257L9.28938 7.31364L9.28974 7.31329L9.9915 8.0257ZM9.77625 8.6158L8.78175 8.72082L8.78096 8.71275L9.77625 8.6158ZM10.0748 10.0892L11.0317 9.79901L11.5312 11.446L9.85298 11.0643L10.0748 10.0892ZM8.09925 9.43134L7.65384 10.3267L7.65382 10.3267L8.09925 9.43134ZM7.56675 9.37682L7.82064 10.3441L7.82008 10.3442L7.56675 9.37682ZM6 9.57721V8.57721L6.00155 8.57721L6 9.57721ZM10.3613 10.9025L10.1701 11.8841L10.1699 11.8841L10.3613 10.9025ZM10.896 10.9976L10.7407 11.9855L10.7372 11.9849L10.896 10.9976ZM11.1008 10.7309L10.1829 11.1278L10.1826 11.1272L11.1008 10.7309ZM10.9178 10.2616L9.9737 10.5914L9.96715 10.5727L9.96136 10.5537L10.9178 10.2616ZM10.9155 10.2542L11.8592 9.92334L11.8659 9.94262L11.8719 9.96216L10.9155 10.2542ZM10.5225 8.54582L9.52724 8.64306L9.48083 8.1681L9.82087 7.83327L10.5225 8.54582ZM6 10.3139V9.31392L6.00132 9.31392L6 10.3139ZM7.76025 10.0885L7.50682 9.12113L7.86945 9.02613L8.20517 9.19291L7.76025 10.0885ZM10.6936 8.73776C10.7205 8.71124 10.7423 8.67801 10.7562 8.63982L8.87734 7.95446C8.96568 7.71228 9.1068 7.49368 9.28938 7.31364L10.6936 8.73776ZM10.7562 8.63982C10.7702 8.60158 10.7756 8.56017 10.7715 8.51886L8.78096 8.71275C8.75592 8.45572 8.78898 8.1967 8.87734 7.95446L10.7562 8.63982ZM10.7707 8.51079C10.8168 8.94711 10.9042 9.37838 11.0317 9.79901L9.11779 10.3794C8.95363 9.83813 8.84113 9.28285 8.78178 8.72081L10.7707 8.51079ZM9.85298 11.0643C8.72892 10.8087 8.01487 10.5063 7.65384 10.3267L8.54466 8.53601C8.76413 8.6452 9.32808 8.89386 10.2965 9.11412L9.85298 11.0643ZM7.65382 10.3267C7.70649 10.3529 7.76542 10.3586 7.82064 10.3441L7.31286 8.40959C7.72465 8.3015 8.16275 8.34601 8.54468 8.53602L7.65382 10.3267ZM7.82008 10.3442C7.2257 10.4999 6.61328 10.5782 5.99845 10.5772L6.00155 8.57721C6.44457 8.5779 6.88565 8.52146 7.31342 8.40944L7.82008 10.3442ZM6 10.5772C2.59207 10.5772 -0.25 8.19302 -0.25 5.15696H1.75C1.75 6.82551 3.41393 8.57721 6 8.57721V10.5772ZM-0.25 5.15696C-0.25 2.12173 2.59195 -0.263292 6 -0.263292V1.73671C3.41405 1.73671 1.75 3.48904 1.75 5.15696H-0.25ZM6 -0.263292C9.40805 -0.263292 12.25 2.12173 12.25 5.15696H10.25C10.25 3.48904 8.58595 1.73671 6 1.73671V-0.263292ZM12.25 5.15696C12.25 6.53699 11.6568 7.78902 10.6933 8.73811L9.28974 7.31329C9.91774 6.69467 10.25 5.9399 10.25 5.15696H12.25ZM10.5524 9.92098C10.7193 9.95349 10.8868 9.98326 11.0548 10.0103L10.7372 11.9849C10.5476 11.9544 10.3586 11.9208 10.1701 11.8841L10.5524 9.92098ZM11.0513 10.0097C10.3957 9.90668 9.94045 10.5671 10.1829 11.1278L12.0186 10.334C12.3796 11.1687 11.6963 12.1356 10.7407 11.9855L11.0513 10.0097ZM10.1826 11.1272C10.1066 10.9511 10.0369 10.7724 9.9737 10.5914L11.8618 9.93181C11.9093 10.0678 11.9617 10.2021 12.0189 10.3346L10.1826 11.1272ZM9.96136 10.5537L9.95911 10.5463L11.8719 9.96216L11.8741 9.96953L9.96136 10.5537ZM9.97184 10.5851C9.76561 9.99703 9.59217 9.30759 9.52724 8.64306L11.5178 8.44857C11.5638 8.92005 11.6934 9.4506 11.8592 9.92334L9.97184 10.5851ZM9.82087 7.83327C10.5734 7.09226 11 6.15481 11 5.15696H13C13 6.75232 12.3121 8.18707 11.2241 9.25836L9.82087 7.83327ZM11 5.15696C11 2.99787 8.90868 1 6 1V-1C9.71832 -1 13 1.61982 13 5.15696H11ZM6 1C3.09132 1 1 2.99787 1 5.15696H-1C-1 1.61982 2.28168 -1 6 -1V1ZM1 5.15696C1 7.31605 3.09132 9.31392 6 9.31392V11.3139C2.28168 11.3139 -1 8.69409 -1 5.15696H1ZM6.00132 9.31392C6.50972 9.31459 7.01589 9.24975 7.50682 9.12113L8.01368 11.0558C7.35623 11.2281 6.6788 11.3148 5.99868 11.3139L6.00132 9.31392ZM8.20517 9.19291C8.51514 9.34691 9.26912 9.67081 10.5526 9.92102L10.1699 11.8841C8.70988 11.5994 7.78536 11.2176 7.31533 10.9841L8.20517 9.19291Z" fill="#939699" mask="url(#path-1-inside-1_2_6457)"/>
</svg>
