<svg width="70" height="70" viewBox="0 0 70 70" fill="none" xmlns="http://www.w3.org/2000/svg">
<g clip-path="url(#clip0_2_7343)">
<path d="M34.2769 30.4098L27.3438 23.4768V16.4062H21.875V25.742L30.4098 34.2768L34.2769 30.4098ZM49.2188 24.6094C49.2188 11.0398 38.179 0 24.6094 0C11.0398 0 0 11.0398 0 24.6094C0 38.179 11.0398 49.2188 24.6094 49.2188C38.179 49.2188 49.2188 38.179 49.2188 24.6094ZM21.875 43.5538C13.5049 42.3514 6.86752 35.7138 5.66494 27.3438H10.9375V21.875H5.66494C6.86752 13.5049 13.5049 6.86752 21.875 5.66494V10.9375H27.3438V5.66494C35.7138 6.86752 42.3512 13.5049 43.5538 21.875H38.2812V27.3438H43.5538C42.3512 35.7138 35.7138 42.3514 27.3438 43.5538V38.2812H21.875V43.5538ZM61.7969 20.7812H53.5938V26.25H61.7969C63.3046 26.25 64.5312 27.4766 64.5312 28.9844V53.5938C64.5312 55.1015 63.3046 56.3281 61.7969 56.3281H49.573L45.3906 61.3822L41.2083 56.3281H28.9844C27.4766 56.3281 26.25 55.1015 26.25 53.5938H20.7812C20.7812 58.117 24.4612 61.7969 28.9844 61.7969H38.6355L45.3906 70L52.1458 61.7969H61.7969C66.3201 61.7969 70 58.117 70 53.5938V28.9844C70 24.4612 66.3201 20.7812 61.7969 20.7812Z" fill="url(#paint0_linear_2_7343)"/>
</g>
<defs>
<linearGradient id="paint0_linear_2_7343" x1="35" y1="70" x2="35" y2="0" gradientUnits="userSpaceOnUse">
<stop stop-color="#3FCAF0"/>
<stop offset="1" stop-color="#2FCB7C"/>
</linearGradient>
<clipPath id="clip0_2_7343">
<rect width="70" height="70" fill="white"/>
</clipPath>
</defs>
</svg>
