<svg width="205" height="65" viewBox="0 0 205 65" fill="none" xmlns="http://www.w3.org/2000/svg">
<path d="M8.07514 47.8347C9.16488 47.9316 10.1116 48.2224 10.9153 48.707C11.7326 49.1917 12.366 49.8425 12.8155 50.6595C13.265 51.4765 13.4898 52.4458 13.4898 53.5674C13.4898 54.6891 13.2718 55.6653 12.8359 56.4961C12.4 57.3131 11.7802 57.9639 10.9766 58.4486C10.1729 58.9194 9.20574 59.2033 8.07514 59.3002V64.119H6.31794V59.3002C5.24183 59.2033 4.29512 58.9194 3.47782 58.4486C2.66052 57.9639 2.02711 57.3131 1.57759 56.4961C1.12808 55.6653 0.90332 54.6891 0.90332 53.5674C0.90332 52.432 1.12127 51.4557 1.55716 50.6387C1.99306 49.8079 2.61965 49.1571 3.43695 48.6863C4.25426 48.2016 5.23502 47.9177 6.37924 47.8347V43.3481H8.07514V47.8347ZM6.37924 49.3509C5.54832 49.434 4.86723 49.6487 4.33599 49.9948C3.80474 50.341 3.40971 50.8118 3.1509 51.4073C2.90571 52.0027 2.78311 52.7227 2.78311 53.5674C2.78311 54.3983 2.90571 55.1183 3.1509 55.7276C3.40971 56.323 3.80474 56.8008 4.33599 57.1608C4.86723 57.507 5.54832 57.7216 6.37924 57.8047V49.3509ZM8.07514 57.8047C8.89244 57.7078 9.55991 57.4862 10.0775 57.14C10.6088 56.7938 10.997 56.323 11.2422 55.7276C11.501 55.1183 11.6304 54.3983 11.6304 53.5674C11.6304 52.7366 11.501 52.0235 11.2422 51.428C10.9834 50.8326 10.5883 50.3618 10.0571 50.0156C9.53947 49.6694 8.87882 49.4548 8.07514 49.3717V57.8047Z" fill="#039BE5"/>
<path d="M18.0382 54.7929C18.0382 54.9175 18.0314 55.0975 18.0178 55.333C18.0178 55.5545 18.011 55.7968 17.9974 56.0599C17.9837 56.3092 17.9701 56.5515 17.9565 56.7869C17.9429 57.0085 17.9293 57.1885 17.9156 57.327L23.7798 48.0008H25.9865V59.134H24.311V52.5704C24.311 52.3489 24.311 52.0581 24.311 51.698C24.3246 51.338 24.3383 50.9849 24.3519 50.6387C24.3655 50.2787 24.3791 50.0087 24.3928 49.8287L18.5695 59.134H16.3423V48.0008H18.0382V54.7929Z" fill="#039BE5"/>
<path d="M31.2699 48.0008V52.6327H37.2158V48.0008H39.0138V59.134H37.2158V54.1698H31.2699V59.134H29.4718V48.0008H31.2699Z" fill="#039BE5"/>
<path d="M46.6294 47.8139C47.9644 47.8139 48.9519 48.1116 49.5921 48.707C50.2324 49.3025 50.5525 50.251 50.5525 51.5526V59.134H49.2448L48.8974 57.5554H48.8157C48.5024 57.957 48.1755 58.2963 47.8349 58.5732C47.508 58.8363 47.1266 59.0302 46.6907 59.1548C46.2684 59.2794 45.7508 59.3417 45.1378 59.3417C44.484 59.3417 43.8915 59.224 43.3602 58.9886C42.8426 58.7532 42.4339 58.3932 42.1343 57.9085C41.8346 57.41 41.6847 56.7869 41.6847 56.0392C41.6847 54.9314 42.1138 54.0798 42.972 53.4843C43.8302 52.8751 45.1515 52.5427 46.9359 52.4873L48.7953 52.425V51.7604C48.7953 50.8326 48.5978 50.1887 48.2027 49.8287C47.8077 49.4686 47.2492 49.2886 46.5273 49.2886C45.9552 49.2886 45.4103 49.3786 44.8927 49.5586C44.375 49.7248 43.8915 49.9187 43.4419 50.1402L42.8903 48.7693C43.367 48.5063 43.9323 48.2847 44.5862 48.1047C45.24 47.9108 45.9211 47.8139 46.6294 47.8139ZM47.1607 53.7544C45.7985 53.8098 44.8518 54.0313 44.3205 54.419C43.8029 54.8068 43.5441 55.3537 43.5441 56.0599C43.5441 56.6831 43.728 57.14 44.0958 57.4308C44.4772 57.7216 44.9608 57.867 45.5465 57.867C46.4728 57.867 47.2424 57.6108 47.8554 57.0985C48.4684 56.5723 48.7748 55.7691 48.7748 54.6891V53.6921L47.1607 53.7544Z" fill="#039BE5"/>
<path d="M55.7331 48.0008V52.6327H61.6789V48.0008H63.477V59.134H61.6789V54.1698H55.7331V59.134H53.935V48.0008H55.7331Z" fill="#039BE5"/>
<path d="M71.3378 59.3417C70.3707 59.3417 69.5057 59.141 68.7429 58.7394C67.9937 58.3378 67.4011 57.7147 66.9652 56.87C66.543 56.0253 66.3318 54.9452 66.3318 53.6297C66.3318 52.2589 66.5566 51.1442 67.0061 50.2856C67.4556 49.4271 68.0618 48.797 68.8246 48.3955C69.601 47.9939 70.4796 47.7931 71.4604 47.7931C72.0189 47.7931 72.5569 47.8554 73.0746 47.9801C73.5922 48.0908 74.0145 48.2293 74.3414 48.3955L73.7897 49.9117C73.4628 49.7871 73.0814 49.6694 72.6455 49.5586C72.2096 49.4479 71.8009 49.3925 71.4195 49.3925C70.6839 49.3925 70.0778 49.5517 69.601 49.8702C69.1243 50.1887 68.7701 50.6595 68.5385 51.2826C68.307 51.9058 68.1912 52.6812 68.1912 53.609C68.1912 54.4952 68.307 55.2499 68.5385 55.873C68.7701 56.4961 69.1175 56.9669 69.5806 57.2854C70.0437 57.6039 70.6227 57.7631 71.3174 57.7631C71.9167 57.7631 72.4411 57.7008 72.8907 57.5762C73.3538 57.4516 73.7761 57.2993 74.1575 57.1193V58.7394C73.7897 58.9332 73.381 59.0786 72.9315 59.1756C72.4956 59.2863 71.9644 59.3417 71.3378 59.3417Z" fill="#039BE5"/>
<path d="M86.2836 53.5467C86.2836 54.4744 86.161 55.2983 85.9158 56.0184C85.6842 56.7246 85.3437 57.327 84.8941 57.8255C84.4582 58.324 83.9202 58.7048 83.28 58.9679C82.6534 59.2171 81.9519 59.3417 81.1754 59.3417C80.4535 59.3417 79.786 59.2171 79.173 58.9679C78.5601 58.7048 78.0288 58.324 77.5793 57.8255C77.1298 57.327 76.7756 56.7246 76.5168 56.0184C76.2716 55.2983 76.149 54.4744 76.149 53.5467C76.149 52.3142 76.3533 51.2757 76.762 50.431C77.1706 49.5725 77.7564 48.9217 78.5192 48.4786C79.282 48.0216 80.1878 47.7931 81.2367 47.7931C82.2311 47.7931 83.1029 48.0216 83.8521 48.4786C84.6149 48.9217 85.2074 49.5725 85.6297 50.431C86.0656 51.2757 86.2836 52.3142 86.2836 53.5467ZM78.0084 53.5467C78.0084 54.419 78.1173 55.1806 78.3353 55.8315C78.5669 56.4684 78.921 56.96 79.3978 57.3062C79.8745 57.6524 80.4807 57.8255 81.2163 57.8255C81.9519 57.8255 82.558 57.6524 83.0348 57.3062C83.5115 56.96 83.8589 56.4684 84.0768 55.8315C84.3084 55.1806 84.4242 54.419 84.4242 53.5467C84.4242 52.6604 84.3084 51.9058 84.0768 51.2826C83.8453 50.6595 83.4911 50.1818 83.0144 49.8494C82.5512 49.5033 81.945 49.3302 81.1958 49.3302C80.0789 49.3302 79.2684 49.704 78.7644 50.4518C78.2604 51.1995 78.0084 52.2312 78.0084 53.5467Z" fill="#039BE5"/>
<path d="M97.9397 50.8049C97.9397 51.4973 97.7354 52.0373 97.3267 52.425C96.9181 52.8127 96.3936 53.0758 95.7534 53.2143V53.2974C96.4345 53.3943 97.027 53.6436 97.531 54.0452C98.035 54.4329 98.287 55.0422 98.287 55.873C98.287 56.3438 98.1985 56.78 98.0214 57.1816C97.8579 57.5831 97.5991 57.9293 97.245 58.2201C96.8908 58.5109 96.4345 58.7394 95.876 58.9055C95.3175 59.0579 94.6432 59.134 93.8532 59.134H89.1332V48.0008H93.8327C94.6092 48.0008 95.3039 48.0908 95.9169 48.2708C96.5435 48.437 97.0338 48.7278 97.388 49.1432C97.7558 49.5448 97.9397 50.0987 97.9397 50.8049ZM96.4277 55.873C96.4277 55.236 96.1893 54.7791 95.7125 54.5021C95.2358 54.2252 94.5343 54.0867 93.608 54.0867H90.9313V57.6593H93.6488C94.5479 57.6593 95.2358 57.5277 95.7125 57.2646C96.1893 56.9877 96.4277 56.5238 96.4277 55.873ZM96.1212 51.0334C96.1212 50.5072 95.9305 50.1264 95.5491 49.891C95.1813 49.6417 94.5751 49.5171 93.7306 49.5171H90.9313V52.5704H93.4036C94.2891 52.5704 94.9633 52.4458 95.4265 52.1965C95.8896 51.9473 96.1212 51.5596 96.1212 51.0334Z" fill="#039BE5"/>
<path d="M100.906 59.134V48.0008H102.704V52.5704H105.544C106.498 52.5704 107.281 52.6881 107.894 52.9235C108.507 53.1589 108.963 53.512 109.263 53.9828C109.562 54.4398 109.712 55.0214 109.712 55.7276C109.712 56.42 109.562 57.0223 109.263 57.5347C108.977 58.047 108.52 58.4417 107.894 58.7186C107.281 58.9956 106.47 59.134 105.462 59.134H100.906ZM105.299 57.6593C106.075 57.6593 106.709 57.5277 107.199 57.2646C107.69 56.9877 107.935 56.51 107.935 55.8315C107.935 55.1529 107.71 54.696 107.26 54.4606C106.811 54.2113 106.164 54.0867 105.319 54.0867H102.704V57.6593H105.299ZM111.531 59.134V48.0008H113.329V59.134H111.531Z" fill="#039BE5"/>
<path d="M125.677 43.3897C125.622 44.0821 125.452 44.6636 125.166 45.1344C124.893 45.6052 124.485 45.9584 123.94 46.1938C123.395 46.4292 122.687 46.5469 121.815 46.5469C120.93 46.5469 120.214 46.4292 119.67 46.1938C119.138 45.9584 118.75 45.6122 118.505 45.1552C118.26 44.6844 118.11 44.0959 118.055 43.3897H119.731C119.799 44.1374 119.99 44.6429 120.303 44.906C120.63 45.1552 121.147 45.2798 121.856 45.2798C122.482 45.2798 122.973 45.1483 123.327 44.8852C123.695 44.6082 123.913 44.1097 123.981 43.3897H125.677ZM118.505 54.7929C118.505 54.9175 118.498 55.0975 118.484 55.333C118.484 55.5545 118.478 55.7968 118.464 56.0599C118.45 56.3092 118.437 56.5515 118.423 56.7869C118.41 57.0085 118.396 57.1885 118.382 57.327L124.246 48.0008H126.453V59.134H124.778V52.5704C124.778 52.3489 124.778 52.0581 124.778 51.698C124.791 51.338 124.805 50.9849 124.819 50.6387C124.832 50.2787 124.846 50.0087 124.859 49.8287L119.036 59.134H116.809V48.0008H118.505V54.7929Z" fill="#039BE5"/>
<path d="M147.027 48.0008L142.512 53.4013L147.416 59.134H145.372L140.632 53.4843V59.134H138.957V53.4843L134.216 59.134H132.173L137.077 53.4013L132.561 48.0008H134.523L138.957 53.4013V48.0008H140.632V53.4013L145.086 48.0008H147.027Z" fill="#039BE5"/>
<path d="M147.497 48.0008H149.418L151.788 54.336C151.924 54.7098 152.047 55.0699 152.156 55.416C152.279 55.7622 152.388 56.1015 152.483 56.4338C152.578 56.7523 152.653 57.0639 152.708 57.3685H152.789C152.871 57.0223 153.001 56.5723 153.178 56.0184C153.355 55.4507 153.539 54.8829 153.729 54.3152L155.956 48.0008H157.898L153.178 60.6711C152.919 61.3634 152.612 61.9658 152.258 62.4781C151.918 63.0043 151.495 63.4059 150.991 63.6829C150.501 63.9736 149.902 64.119 149.193 64.119C148.866 64.119 148.58 64.0983 148.335 64.0567C148.09 64.029 147.879 63.9944 147.702 63.9529V62.4989C147.852 62.5266 148.029 62.5543 148.233 62.582C148.451 62.6097 148.676 62.6235 148.907 62.6235C149.329 62.6235 149.69 62.5405 149.99 62.3743C150.303 62.222 150.569 61.9935 150.787 61.6888C151.005 61.3981 151.189 61.0519 151.339 60.6503L151.911 59.1756L147.497 48.0008Z" fill="#039BE5"/>
<path d="M164.84 47.7931C166.188 47.7931 167.271 48.2708 168.089 49.2263C168.919 50.1818 169.335 51.6219 169.335 53.5467C169.335 54.8068 169.144 55.873 168.763 56.7454C168.395 57.6039 167.871 58.2547 167.19 58.6978C166.522 59.1271 165.732 59.3417 164.819 59.3417C164.261 59.3417 163.764 59.2656 163.328 59.1133C162.892 58.9609 162.517 58.7671 162.204 58.5317C161.904 58.2824 161.646 58.0124 161.428 57.7216H161.305C161.332 57.957 161.359 58.2547 161.387 58.6148C161.414 58.9748 161.428 59.2863 161.428 59.5494V64.119H159.629V48.0008H161.101L161.346 49.5171H161.428C161.646 49.1986 161.904 48.9078 162.204 48.6447C162.517 48.3816 162.885 48.1739 163.307 48.0216C163.743 47.8693 164.254 47.7931 164.84 47.7931ZM164.513 49.3302C163.777 49.3302 163.185 49.4756 162.735 49.7664C162.286 50.0433 161.959 50.4656 161.754 51.0334C161.55 51.6011 161.441 52.3212 161.428 53.1936V53.5467C161.428 54.4606 161.523 55.236 161.714 55.873C161.904 56.51 162.224 56.9946 162.674 57.327C163.137 57.6593 163.764 57.8255 164.554 57.8255C165.221 57.8255 165.766 57.6385 166.188 57.2646C166.624 56.8908 166.944 56.3853 167.149 55.7484C167.367 55.0976 167.476 54.3567 167.476 53.5259C167.476 52.2519 167.23 51.2342 166.74 50.4726C166.263 49.711 165.521 49.3302 164.513 49.3302Z" fill="#039BE5"/>
<path d="M173.998 48.0008V52.6327H179.944V48.0008H181.742V59.134H179.944V54.1698H173.998V59.134H172.2V48.0008H173.998Z" fill="#039BE5"/>
<path d="M189.358 47.8139C190.693 47.8139 191.68 48.1116 192.321 48.707C192.961 49.3025 193.281 50.251 193.281 51.5526V59.134H191.973L191.626 57.5554H191.544C191.231 57.957 190.904 58.2963 190.563 58.5732C190.236 58.8363 189.855 59.0302 189.419 59.1548C188.997 59.2794 188.479 59.3417 187.866 59.3417C187.212 59.3417 186.62 59.224 186.089 58.9886C185.571 58.7532 185.162 58.3932 184.863 57.9085C184.563 57.41 184.413 56.7869 184.413 56.0392C184.413 54.9314 184.842 54.0798 185.7 53.4843C186.559 52.8751 187.88 52.5427 189.664 52.4873L191.524 52.425V51.7604C191.524 50.8326 191.326 50.1887 190.931 49.8287C190.536 49.4686 189.978 49.2886 189.256 49.2886C188.684 49.2886 188.139 49.3786 187.621 49.5586C187.104 49.7248 186.62 49.9187 186.17 50.1402L185.619 48.7693C186.095 48.5063 186.661 48.2847 187.315 48.1047C187.968 47.9108 188.65 47.8139 189.358 47.8139ZM189.889 53.7544C188.527 53.8098 187.58 54.0313 187.049 54.419C186.531 54.8068 186.273 55.3537 186.273 56.0599C186.273 56.6831 186.456 57.14 186.824 57.4308C187.206 57.7216 187.689 57.867 188.275 57.867C189.201 57.867 189.971 57.6108 190.584 57.0985C191.197 56.5723 191.503 55.7691 191.503 54.6891V53.6921L189.889 53.7544Z" fill="#039BE5"/>
<path d="M205 59.134H203.181V49.5171H199.953C199.817 51.2757 199.647 52.7781 199.442 54.0244C199.238 55.2568 198.979 56.2607 198.666 57.0362C198.353 57.8116 197.978 58.3794 197.542 58.7394C197.106 59.0994 196.595 59.2794 196.01 59.2794C195.833 59.2794 195.655 59.2656 195.478 59.2379C195.315 59.224 195.179 59.1894 195.07 59.134V57.7631C195.151 57.7908 195.24 57.8116 195.335 57.8255C195.431 57.8393 195.526 57.8462 195.621 57.8462C195.921 57.8462 196.194 57.7216 196.439 57.4724C196.684 57.2231 196.902 56.8423 197.093 56.33C197.297 55.8176 197.481 55.1737 197.644 54.3983C197.808 53.609 197.951 52.6812 198.073 51.615C198.196 50.5487 198.305 49.344 198.4 48.0008H205V59.134Z" fill="#039BE5"/>
<path d="M55.0879 33.0535V6.68208H71.7693V11.279H60.4146V17.5628H70.6622V22.1598H60.4146V33.0535H55.0879Z" fill="#039BE5"/>
<path d="M80.679 6.68208V33.0535H75.3523V6.68208H80.679Z" fill="#039BE5"/>
<path d="M106.135 6.68208V33.0535H101.534L90.5729 16.4555H90.3884V33.0535H85.0616V6.68208H89.7364L100.611 23.2672H100.833V6.68208H106.135Z" fill="#039BE5"/>
<path d="M114.878 33.0535H109.17L117.868 6.68208H124.732L133.418 33.0535H127.709L121.399 12.7084H121.202L114.878 33.0535ZM114.522 22.6878H128.005V27.0401H114.522V22.6878Z" fill="#039BE5"/>
<path d="M157.523 6.68208V33.0535H152.922L141.961 16.4555H141.777V33.0535H136.45V6.68208H141.125L152 23.2672H152.221V6.68208H157.523Z" fill="#039BE5"/>
<path d="M184.154 15.9146H178.766C178.667 15.185 178.466 14.5368 178.163 13.9703C177.859 13.3951 177.47 12.9058 176.994 12.5023C176.519 12.0989 175.969 11.7898 175.346 11.5752C174.731 11.3606 174.062 11.2533 173.34 11.2533C172.036 11.2533 170.901 11.5924 169.933 12.2705C168.965 12.9401 168.215 13.9188 167.682 15.2064C167.149 16.4855 166.882 18.0393 166.882 19.8678C166.882 21.7478 167.149 23.3273 167.682 24.6064C168.223 25.8855 168.977 26.8512 169.945 27.5036C170.913 28.156 172.032 28.4822 173.304 28.4822C174.017 28.4822 174.677 28.3835 175.284 28.1861C175.899 27.9886 176.445 27.7011 176.92 27.3233C177.396 26.937 177.79 26.4692 178.101 25.9198C178.421 25.3704 178.643 24.7437 178.766 24.0398L184.154 24.0656C184.014 25.276 183.666 26.4434 183.108 27.568C182.559 28.684 181.817 29.6841 180.882 30.5683C179.955 31.4439 178.848 32.1392 177.56 32.6543C176.281 33.1608 174.833 33.414 173.217 33.414C170.97 33.414 168.961 32.8818 167.19 31.8173C165.426 30.7528 164.032 29.2119 163.007 27.1946C161.99 25.1772 161.481 22.735 161.481 19.8678C161.481 16.992 161.998 14.5454 163.031 12.5281C164.065 10.5107 165.467 8.97412 167.239 7.91824C169.01 6.85377 171.003 6.32153 173.217 6.32153C174.677 6.32153 176.031 6.53614 177.277 6.96537C178.532 7.39459 179.643 8.02125 180.611 8.84536C181.579 9.66088 182.366 10.661 182.973 11.8456C183.588 13.0303 183.982 14.3866 184.154 15.9146Z" fill="#039BE5"/>
<path d="M187.974 33.0535V6.68208H204.95V11.279H193.3V17.5628H204.077V22.1598H193.3V28.4565H205V33.0535H187.974Z" fill="#039BE5"/>
<path fill-rule="evenodd" clip-rule="evenodd" d="M0.0120487 0H13.0094V19.3629C13.0094 26.6304 13.4913 27.008 20.8551 27.008H25.2863V39.7356H12.9974C7.15168 39.7356 0 36.1962 0 27.3171L0.0120487 0Z" fill="url(#paint0_linear_2_6397)"/>
<path fill-rule="evenodd" clip-rule="evenodd" d="M12.7485 19.8679C12.7485 26.311 13.2406 26.6457 20.7611 26.6457H25.2867V37.9296H23.6059C10.8093 35.2833 12.7485 19.8679 12.7485 19.8679Z" fill="#039BE5"/>
<path fill-rule="evenodd" clip-rule="evenodd" d="M42.4445 39.7356H29.3095V20.3728C29.3095 13.1029 28.8224 12.7277 21.3807 12.7277H17.1582V0H29.3095C35.2195 0 42.4445 3.5394 42.4445 12.4162V39.7356Z" fill="url(#paint1_linear_2_6397)"/>
<path fill-rule="evenodd" clip-rule="evenodd" d="M28.7981 19.8678C28.7981 12.7781 28.3316 12.4122 21.203 12.4122H17.1582V0H18.5181C30.6409 2.91321 28.7981 19.8678 28.7981 19.8678Z" fill="#039BE5"/>
<defs>
<linearGradient id="paint0_linear_2_6397" x1="0.299672" y1="23.6391" x2="25.1724" y2="23.6391" gradientUnits="userSpaceOnUse">
<stop stop-color="#40CAF5"/>
<stop offset="1" stop-color="#2ECC71"/>
</linearGradient>
<linearGradient id="paint1_linear_2_6397" x1="17.4579" y1="23.6391" x2="42.3306" y2="23.6391" gradientUnits="userSpaceOnUse">
<stop stop-color="#40CAF5"/>
<stop offset="1" stop-color="#2ECC71"/>
</linearGradient>
</defs>
</svg>
