<svg width="11" height="10" viewBox="0 0 11 10" fill="none" xmlns="http://www.w3.org/2000/svg">
<path d="M5.16183 1.7856L5.49996 2.32071L5.83812 1.78562L6.18605 1.23505C6.69593 0.680344 7.27145 0.4 7.94553 0.4C8.64174 0.4 9.30323 0.698813 9.80926 1.25965L10.1062 0.99169L9.80927 1.25965C10.8603 2.42452 10.8635 4.33359 9.81914 5.50249L5.56068 9.55705L5.54951 9.56768L5.53919 9.57915C5.52971 9.58968 5.52165 9.59451 5.51649 9.59683C5.51113 9.59924 5.50655 9.6 5.50274 9.6C5.49907 9.6 5.49718 9.59965 5.49643 9.59949L5.49644 9.59943L5.49003 9.59814C5.48628 9.59739 5.48219 9.59596 5.47777 9.59344C5.47344 9.59096 5.46761 9.58675 5.46093 9.57932L5.45053 9.56777L5.43928 9.55705L1.18083 5.50249C0.136496 4.33359 0.139689 2.42451 1.19067 1.25964L0.903349 1.00041L1.19067 1.25964C1.69664 0.698845 2.35844 0.4 3.05461 0.4C3.72854 0.4 4.30424 0.680368 4.81393 1.23502L5.16183 1.7856Z" stroke="#939699" stroke-width="0.8"/>
</svg>
