<svg width="15" height="20" viewBox="0 0 15 20" fill="none" xmlns="http://www.w3.org/2000/svg">
<path d="M12.7075 11.175C12.0525 12.5025 11.165 13.825 10.2575 15.0125C9.39662 16.132 8.47612 17.2044 7.5 18.225C6.52385 17.2044 5.60336 16.132 4.7425 15.0125C3.835 13.825 2.9475 12.5025 2.2925 11.175C1.63 9.83375 1.25 8.5775 1.25 7.5C1.25 5.8424 1.90848 4.25269 3.08058 3.08058C4.25269 1.90848 5.8424 1.25 7.5 1.25C9.1576 1.25 10.7473 1.90848 11.9194 3.08058C13.0915 4.25269 13.75 5.8424 13.75 7.5C13.75 8.5775 13.3688 9.83375 12.7075 11.175ZM7.5 20C7.5 20 15 12.8925 15 7.5C15 5.51088 14.2098 3.60322 12.8033 2.1967C11.3968 0.790176 9.48912 0 7.5 0C5.51088 0 3.60322 0.790176 2.1967 2.1967C0.790176 3.60322 2.96403e-08 5.51088 0 7.5C0 12.8925 7.5 20 7.5 20Z" fill="#039BE5"/>
<path d="M7.5 10C6.83696 10 6.20107 9.73661 5.73223 9.26777C5.26339 8.79893 5 8.16304 5 7.5C5 6.83696 5.26339 6.20107 5.73223 5.73223C6.20107 5.26339 6.83696 5 7.5 5C8.16304 5 8.79893 5.26339 9.26777 5.73223C9.73661 6.20107 10 6.83696 10 7.5C10 8.16304 9.73661 8.79893 9.26777 9.26777C8.79893 9.73661 8.16304 10 7.5 10ZM7.5 11.25C8.49456 11.25 9.44839 10.8549 10.1517 10.1517C10.8549 9.44839 11.25 8.49456 11.25 7.5C11.25 6.50544 10.8549 5.55161 10.1517 4.84835C9.44839 4.14509 8.49456 3.75 7.5 3.75C6.50544 3.75 5.55161 4.14509 4.84835 4.84835C4.14509 5.55161 3.75 6.50544 3.75 7.5C3.75 8.49456 4.14509 9.44839 4.84835 10.1517C5.55161 10.8549 6.50544 11.25 7.5 11.25Z" fill="#039BE5"/>
</svg>
