<svg width="137" height="43" viewBox="0 0 137 43" fill="none" xmlns="http://www.w3.org/2000/svg">
<path d="M5.3964 31.9675C6.12466 32.0323 6.75734 32.2267 7.29443 32.5506C7.84063 32.8744 8.26393 33.3094 8.56434 33.8554C8.86475 34.4014 9.01496 35.0491 9.01496 35.7987C9.01496 36.5483 8.8693 37.2007 8.578 37.7559C8.28669 38.3019 7.87249 38.7369 7.3354 39.0608C6.7983 39.3754 6.15197 39.5651 5.3964 39.6299V42.8503H4.22207V39.6299C3.50291 39.5651 2.87023 39.3754 2.32404 39.0608C1.77784 38.7369 1.35454 38.3019 1.05413 37.7559C0.75372 37.2007 0.603516 36.5483 0.603516 35.7987C0.603516 35.0399 0.749168 34.3875 1.04047 33.8415C1.33178 33.2862 1.75053 32.8513 2.29673 32.5367C2.84293 32.2128 3.49836 32.0231 4.26304 31.9675V28.9692H5.3964V31.9675ZM4.26304 32.9809C3.70774 33.0364 3.25257 33.1798 2.89754 33.4112C2.54252 33.6425 2.27852 33.9572 2.10556 34.3551C1.9417 34.753 1.85977 35.2342 1.85977 35.7987C1.85977 36.354 1.9417 36.8352 2.10556 37.2423C2.27852 37.6403 2.54252 37.9595 2.89754 38.2001C3.25257 38.4315 3.70774 38.5749 4.26304 38.6305V32.9809ZM5.3964 38.6305C5.9426 38.5657 6.38866 38.4176 6.73458 38.1863C7.08961 37.9549 7.34905 37.6403 7.51291 37.2423C7.68588 36.8352 7.77236 36.354 7.77236 35.7987C7.77236 35.2435 7.68588 34.7669 7.51291 34.369C7.33995 33.971 7.07595 33.6564 6.72093 33.4251C6.375 33.1937 5.93349 33.0503 5.3964 32.9947V38.6305Z" fill="#039BE5"/>
<path d="M12.0547 36.6177C12.0547 36.701 12.0501 36.8213 12.041 36.9786C12.041 37.1267 12.0365 37.2886 12.0274 37.4644C12.0183 37.631 12.0092 37.793 12.0001 37.9503C11.9909 38.0983 11.9818 38.2186 11.9727 38.3112L15.8917 32.0786H17.3664V39.5188H16.2467V35.1324C16.2467 34.9844 16.2467 34.79 16.2467 34.5494C16.2558 34.3088 16.2649 34.0728 16.274 33.8415C16.2831 33.6009 16.2923 33.4204 16.3014 33.3001L12.4097 39.5188H10.9213V32.0786H12.0547V36.6177Z" fill="#039BE5"/>
<path d="M20.8973 32.0786V35.1741H24.8709V32.0786H26.0725V39.5188H24.8709V36.2013H20.8973V39.5188H19.6957V32.0786H20.8973Z" fill="#039BE5"/>
<path d="M31.162 31.9537C32.0541 31.9537 32.7141 32.1526 33.1419 32.5506C33.5698 32.9485 33.7837 33.5824 33.7837 34.4523V39.5188H32.9098L32.6777 38.4639H32.6231C32.4137 38.7322 32.1952 38.959 31.9676 39.1441C31.7491 39.3199 31.4942 39.4494 31.2029 39.5327C30.9207 39.616 30.5748 39.6577 30.1652 39.6577C29.7282 39.6577 29.3322 39.579 28.9772 39.4217C28.6313 39.2644 28.3582 39.0238 28.1579 38.6999C27.9576 38.3667 27.8575 37.9503 27.8575 37.4506C27.8575 36.7102 28.1442 36.1411 28.7177 35.7432C29.2913 35.336 30.1743 35.1139 31.3668 35.0769L32.6094 35.0353V34.5911C32.6094 33.971 32.4774 33.5407 32.2134 33.3001C31.9494 33.0595 31.5762 32.9392 31.0937 32.9392C30.7114 32.9392 30.3472 32.9994 30.0013 33.1197C29.6554 33.2307 29.3322 33.3603 29.0318 33.5083L28.6631 32.5922C28.9817 32.4164 29.3595 32.2683 29.7965 32.148C30.2334 32.0184 30.6886 31.9537 31.162 31.9537ZM31.517 35.9236C30.6067 35.9607 29.974 36.1087 29.619 36.3678C29.273 36.627 29.1001 36.9925 29.1001 37.4644C29.1001 37.8809 29.223 38.1863 29.4688 38.3806C29.7237 38.5749 30.0468 38.6721 30.4383 38.6721C31.0573 38.6721 31.5716 38.5009 31.9813 38.1585C32.3909 37.8068 32.5957 37.2701 32.5957 36.5483V35.882L31.517 35.9236Z" fill="#039BE5"/>
<path d="M37.2459 32.0786V35.1741H41.2195V32.0786H42.4211V39.5188H41.2195V36.2013H37.2459V39.5188H36.0443V32.0786H37.2459Z" fill="#039BE5"/>
<path d="M47.6744 39.6577C47.0281 39.6577 46.45 39.5235 45.9402 39.2551C45.4396 38.9867 45.0436 38.5703 44.7523 38.0058C44.4701 37.4413 44.329 36.7195 44.329 35.8404C44.329 34.9242 44.4792 34.1793 44.7796 33.6055C45.08 33.0318 45.4851 32.6107 45.9949 32.3423C46.5138 32.074 47.1009 31.9398 47.7563 31.9398C48.1296 31.9398 48.4892 31.9814 48.8351 32.0647C49.181 32.1387 49.4632 32.2313 49.6817 32.3423L49.313 33.3557C49.0945 33.2724 48.8396 33.1937 48.5483 33.1197C48.257 33.0456 47.9839 33.0086 47.729 33.0086C47.2375 33.0086 46.8324 33.115 46.5137 33.3279C46.1951 33.5407 45.9585 33.8554 45.8037 34.2718C45.6489 34.6882 45.5716 35.2065 45.5716 35.8265C45.5716 36.4187 45.6489 36.9231 45.8037 37.3395C45.9585 37.7559 46.1906 38.0706 46.5001 38.2834C46.8096 38.4963 47.1965 38.6027 47.6608 38.6027C48.0613 38.6027 48.4118 38.561 48.7122 38.4778C49.0217 38.3945 49.3039 38.2927 49.5588 38.1724V39.2551C49.313 39.3847 49.0399 39.4818 48.7395 39.5466C48.4482 39.6206 48.0932 39.6577 47.6744 39.6577Z" fill="#039BE5"/>
<path d="M57.6626 35.7848C57.6626 36.4049 57.5806 36.9555 57.4168 37.4367C57.262 37.9086 57.0345 38.3112 56.734 38.6443C56.4427 38.9775 56.0832 39.232 55.6553 39.4078C55.2366 39.5744 54.7677 39.6577 54.2488 39.6577C53.7664 39.6577 53.3203 39.5744 52.9107 39.4078C52.501 39.232 52.146 38.9775 51.8456 38.6443C51.5452 38.3112 51.3085 37.9086 51.1355 37.4367C50.9717 36.9555 50.8897 36.4049 50.8897 35.7848C50.8897 34.9612 51.0263 34.2672 51.2994 33.7027C51.5725 33.1289 51.9639 32.694 52.4737 32.3979C52.9835 32.0925 53.5889 31.9398 54.2898 31.9398C54.9543 31.9398 55.537 32.0925 56.0376 32.3979C56.5474 32.694 56.9434 33.1289 57.2256 33.7027C57.5169 34.2672 57.6626 34.9612 57.6626 35.7848ZM52.1323 35.7848C52.1323 36.3678 52.2052 36.8768 52.3508 37.3118C52.5056 37.7374 52.7422 38.066 53.0609 38.2973C53.3795 38.5287 53.7846 38.6443 54.2762 38.6443C54.7677 38.6443 55.1728 38.5287 55.4914 38.2973C55.8101 38.066 56.0422 37.7374 56.1878 37.3118C56.3426 36.8768 56.42 36.3678 56.42 35.7848C56.42 35.1926 56.3426 34.6882 56.1878 34.2718C56.0331 33.8554 55.7964 33.5361 55.4778 33.314C55.1683 33.0827 54.7632 32.967 54.2625 32.967C53.516 32.967 52.9744 33.2168 52.6376 33.7166C52.3007 34.2163 52.1323 34.9057 52.1323 35.7848Z" fill="#039BE5"/>
<path d="M65.4523 33.9525C65.4523 34.4152 65.3157 34.7761 65.0426 35.0353C64.7695 35.2944 64.4191 35.4702 63.9912 35.5627V35.6183C64.4464 35.683 64.8424 35.8496 65.1792 36.118C65.516 36.3771 65.6844 36.7843 65.6844 37.3395C65.6844 37.6542 65.6253 37.9457 65.5069 38.214C65.3977 38.4824 65.2247 38.7137 64.988 38.9081C64.7513 39.1024 64.4464 39.2551 64.0731 39.3662C63.6999 39.4679 63.2493 39.5188 62.7213 39.5188H59.567V32.0786H62.7076C63.2265 32.0786 63.6908 32.1387 64.1005 32.259C64.5192 32.3701 64.8469 32.5644 65.0836 32.8421C65.3294 33.1104 65.4523 33.4806 65.4523 33.9525ZM64.4418 37.3395C64.4418 36.9138 64.2825 36.6084 63.9639 36.4234C63.6453 36.2383 63.1765 36.1457 62.5574 36.1457H60.7687V38.5333H62.5848C63.1856 38.5333 63.6453 38.4454 63.9639 38.2695C64.2825 38.0845 64.4418 37.7745 64.4418 37.3395ZM64.237 34.1052C64.237 33.7536 64.1096 33.4991 63.8547 33.3418C63.6089 33.1752 63.2038 33.0919 62.6394 33.0919H60.7687V35.1324H62.4209C63.0126 35.1324 63.4632 35.0491 63.7727 34.8826C64.0822 34.716 64.237 34.4569 64.237 34.1052Z" fill="#039BE5"/>
<path d="M67.4346 39.5188V32.0786H68.6362V35.1324H70.5343C71.1715 35.1324 71.6949 35.2111 72.1046 35.3684C72.5142 35.5257 72.8192 35.7617 73.0195 36.0763C73.2197 36.3817 73.3199 36.7704 73.3199 37.2423C73.3199 37.7051 73.2197 38.1076 73.0195 38.45C72.8283 38.7924 72.5233 39.0561 72.1046 39.2412C71.6949 39.4263 71.1533 39.5188 70.4797 39.5188H67.4346ZM70.3704 38.5333C70.8893 38.5333 71.3126 38.4454 71.6403 38.2695C71.968 38.0845 72.1319 37.7652 72.1319 37.3118C72.1319 36.8583 71.9817 36.5529 71.6813 36.3956C71.3809 36.229 70.9485 36.1457 70.3841 36.1457H68.6362V38.5333H70.3704ZM74.5352 39.5188V32.0786H75.7368V39.5188H74.5352Z" fill="#039BE5"/>
<path d="M83.9888 28.997C83.9523 29.4597 83.8385 29.8484 83.6474 30.163C83.4653 30.4776 83.1922 30.7136 82.8281 30.8709C82.464 31.0283 81.9906 31.1069 81.408 31.1069C80.8163 31.1069 80.3383 31.0283 79.9742 30.8709C79.6192 30.7136 79.3597 30.4823 79.1959 30.1769C79.032 29.8623 78.9319 29.469 78.8955 28.997H80.0152C80.0607 29.4967 80.1881 29.8345 80.3975 30.0103C80.616 30.1769 80.9619 30.2602 81.4353 30.2602C81.854 30.2602 82.1818 30.1723 82.4184 29.9964C82.6642 29.8114 82.8099 29.4782 82.8554 28.997H83.9888ZM79.1959 36.6177C79.1959 36.701 79.1913 36.8213 79.1822 36.9786C79.1822 37.1267 79.1777 37.2886 79.1686 37.4644C79.1595 37.631 79.1504 37.793 79.1413 37.9503C79.1322 38.0983 79.1231 38.2186 79.114 38.3112L83.0329 32.0786H84.5076V39.5188H83.3879V35.1324C83.3879 34.9844 83.3879 34.79 83.3879 34.5494C83.397 34.3088 83.4061 34.0728 83.4152 33.8415C83.4244 33.6009 83.4335 33.4204 83.4426 33.3001L79.5509 39.5188H78.0625V32.0786H79.1959V36.6177Z" fill="#039BE5"/>
<path d="M98.2573 32.0786L95.2396 35.6877L98.5168 39.5188H97.1513L93.9833 35.7432V39.5188H92.8636V35.7432L89.6957 39.5188H88.3302L91.6074 35.6877L88.5896 32.0786H89.9005L92.8636 35.6877V32.0786H93.9833V35.6877L96.9601 32.0786H98.2573Z" fill="#039BE5"/>
<path d="M98.5714 32.0786H99.8549L101.439 36.3123C101.53 36.5622 101.612 36.8028 101.685 37.0341C101.767 37.2655 101.839 37.4922 101.903 37.7143C101.967 37.9271 102.017 38.1354 102.053 38.339H102.108C102.163 38.1076 102.249 37.8068 102.367 37.4367C102.486 37.0573 102.609 36.6779 102.736 36.2984L104.225 32.0786H105.522L102.367 40.546C102.194 41.0087 101.99 41.4113 101.753 41.7537C101.525 42.1053 101.243 42.3737 100.906 42.5588C100.579 42.7531 100.178 42.8503 99.7047 42.8503C99.4863 42.8503 99.2951 42.8364 99.1312 42.8087C98.9674 42.7901 98.8263 42.767 98.7079 42.7392V41.7676C98.8081 41.7861 98.9264 41.8046 99.063 41.8231C99.2086 41.8416 99.3588 41.8509 99.5136 41.8509C99.7958 41.8509 100.037 41.7953 100.237 41.6843C100.447 41.5825 100.624 41.4298 100.77 41.2262C100.915 41.0319 101.038 40.8005 101.138 40.5322L101.521 39.5466L98.5714 32.0786Z" fill="#039BE5"/>
<path d="M110.161 31.9398C111.062 31.9398 111.786 32.259 112.332 32.8976C112.888 33.5361 113.165 34.4985 113.165 35.7848C113.165 36.627 113.038 37.3395 112.783 37.9225C112.537 38.4963 112.187 38.9312 111.732 39.2273C111.285 39.5142 110.757 39.6577 110.148 39.6577C109.774 39.6577 109.442 39.6068 109.151 39.505C108.859 39.4032 108.609 39.2736 108.4 39.1163C108.199 38.9497 108.026 38.7693 107.881 38.5749H107.799C107.817 38.7322 107.835 38.9312 107.854 39.1718C107.872 39.4124 107.881 39.6206 107.881 39.7965V42.8503H106.679V32.0786H107.662L107.826 33.0919H107.881C108.026 32.8791 108.199 32.6847 108.4 32.5089C108.609 32.3331 108.855 32.1943 109.137 32.0925C109.428 31.9907 109.77 31.9398 110.161 31.9398ZM109.943 32.967C109.451 32.967 109.055 33.0642 108.755 33.2585C108.454 33.4436 108.236 33.7258 108.099 34.1052C107.963 34.4846 107.89 34.9659 107.881 35.5489V35.7848C107.881 36.3956 107.945 36.9138 108.072 37.3395C108.199 37.7652 108.413 38.0891 108.714 38.3112C109.023 38.5333 109.442 38.6443 109.97 38.6443C110.416 38.6443 110.78 38.5194 111.062 38.2695C111.354 38.0197 111.568 37.6819 111.704 37.2562C111.85 36.8213 111.923 36.3262 111.923 35.771C111.923 34.9196 111.759 34.2394 111.431 33.7304C111.113 33.2215 110.616 32.967 109.943 32.967Z" fill="#039BE5"/>
<path d="M116.282 32.0786V35.1741H120.255V32.0786H121.457V39.5188H120.255V36.2013H116.282V39.5188H115.08V32.0786H116.282Z" fill="#039BE5"/>
<path d="M126.547 31.9537C127.439 31.9537 128.099 32.1526 128.526 32.5506C128.954 32.9485 129.168 33.5824 129.168 34.4523V39.5188H128.294L128.062 38.4639H128.008C127.798 38.7322 127.58 38.959 127.352 39.1441C127.134 39.3199 126.879 39.4494 126.587 39.5327C126.305 39.616 125.959 39.6577 125.55 39.6577C125.113 39.6577 124.717 39.579 124.362 39.4217C124.016 39.2644 123.743 39.0238 123.542 38.6999C123.342 38.3667 123.242 37.9503 123.242 37.4506C123.242 36.7102 123.529 36.1411 124.102 35.7432C124.676 35.336 125.559 35.1139 126.751 35.0769L127.994 35.0353V34.5911C127.994 33.971 127.862 33.5407 127.598 33.3001C127.334 33.0595 126.961 32.9392 126.478 32.9392C126.096 32.9392 125.732 32.9994 125.386 33.1197C125.04 33.2307 124.717 33.3603 124.416 33.5083L124.048 32.5922C124.366 32.4164 124.744 32.2683 125.181 32.148C125.618 32.0184 126.073 31.9537 126.547 31.9537ZM126.902 35.9236C125.991 35.9607 125.359 36.1087 125.003 36.3678C124.658 36.627 124.485 36.9925 124.485 37.4644C124.485 37.8809 124.607 38.1863 124.853 38.3806C125.108 38.5749 125.431 38.6721 125.823 38.6721C126.442 38.6721 126.956 38.5009 127.366 38.1585C127.775 37.8068 127.98 37.2701 127.98 36.5483V35.882L126.902 35.9236Z" fill="#039BE5"/>
<path d="M137 39.5188H135.785V33.0919H133.627C133.536 34.2672 133.422 35.2712 133.286 36.1041C133.149 36.9277 132.976 37.5986 132.767 38.1169C132.558 38.6351 132.307 39.0145 132.016 39.2551C131.725 39.4957 131.383 39.616 130.992 39.616C130.873 39.616 130.755 39.6068 130.637 39.5882C130.528 39.579 130.437 39.5559 130.364 39.5188V38.6027C130.418 38.6212 130.477 38.6351 130.541 38.6443C130.605 38.6536 130.669 38.6582 130.732 38.6582C130.933 38.6582 131.115 38.5749 131.279 38.4084C131.442 38.2418 131.588 37.9873 131.716 37.6449C131.852 37.3025 131.975 36.8722 132.084 36.354C132.193 35.8265 132.289 35.2065 132.371 34.4939C132.453 33.7813 132.526 32.9762 132.589 32.0786H137V39.5188Z" fill="#039BE5"/>
<path d="M36.8145 22.0894V4.46556H47.9626V7.53768H40.3743V11.7371H47.2226V14.8092H40.3743V22.0894H36.8145Z" fill="#0D0D0D"/>
<path d="M53.9169 4.46556V22.0894H50.357V4.46556H53.9169Z" fill="#0D0D0D"/>
<path d="M70.9288 4.46556V22.0894H67.8541L60.5289 10.997H60.4055V22.0894H56.8457V4.46556H59.9698L67.2375 15.5493H67.3854V4.46556H70.9288Z" fill="#0D0D0D"/>
<path d="M76.7721 22.0894H72.9574L78.7699 4.46556H83.3574L89.1617 22.0894H85.347L81.1294 8.49288H80.9979L76.7721 22.0894ZM76.5337 15.1621H85.5443V18.0707H76.5337V15.1621Z" fill="#0D0D0D"/>
<path d="M105.271 4.46556V22.0894H102.197L94.8714 10.997H94.7481V22.0894H91.1882V4.46556H94.3123L101.58 15.5493H101.728V4.46556H105.271Z" fill="#0D0D0D"/>
<path d="M123.068 10.6356H119.468C119.402 10.148 119.267 9.71484 119.065 9.33621C118.862 8.95183 118.602 8.62483 118.284 8.35519C117.966 8.08556 117.599 7.87903 117.182 7.73561C116.771 7.59218 116.324 7.52047 115.842 7.52047C114.97 7.52047 114.211 7.74708 113.565 8.2003C112.918 8.64778 112.416 9.30179 112.06 10.1623C111.704 11.0171 111.526 12.0555 111.526 13.2775C111.526 14.5339 111.704 15.5895 112.06 16.4443C112.422 17.2991 112.926 17.9445 113.573 18.3805C114.22 18.8165 114.968 19.0345 115.817 19.0345C116.294 19.0345 116.735 18.9685 117.141 18.8365C117.552 18.7046 117.916 18.5124 118.234 18.26C118.552 18.0018 118.815 17.6892 119.024 17.322C119.237 16.9548 119.385 16.536 119.468 16.0656L123.068 16.0828C122.975 16.8917 122.742 17.672 122.37 18.4235C122.002 19.1693 121.506 19.8376 120.882 20.4285C120.262 21.0137 119.522 21.4784 118.662 21.8226C117.807 22.1611 116.839 22.3303 115.76 22.3303C114.258 22.3303 112.915 21.9746 111.731 21.2633C110.553 20.5519 109.621 19.5221 108.936 18.1739C108.256 16.8258 107.917 15.1936 107.917 13.2775C107.917 11.3556 108.262 9.72058 108.952 8.3724C109.643 7.02423 110.58 5.99732 111.764 5.29168C112.948 4.5803 114.28 4.22461 115.76 4.22461C116.735 4.22461 117.64 4.36803 118.473 4.65488C119.311 4.94172 120.054 5.36052 120.701 5.91126C121.347 6.45627 121.874 7.12462 122.279 7.91632C122.69 8.70801 122.953 9.61445 123.068 10.6356Z" fill="#0D0D0D"/>
<path d="M125.621 22.0894V4.46556H136.967V7.53768H129.181V11.7371H136.383V14.8092H129.181V19.0173H136.999V22.0894H125.621Z" fill="#0D0D0D"/>
<path fill-rule="evenodd" clip-rule="evenodd" d="M0.00805208 0H8.69411V12.9401C8.69411 17.7969 9.01617 18.0492 13.9373 18.0492H16.8987V26.5551H8.68606C4.77943 26.5551 0 24.1897 0 18.2558L0.00805208 0Z" fill="url(#paint0_linear_2_6497)"/>
<path fill-rule="evenodd" clip-rule="evenodd" d="M8.51932 13.2773C8.51932 17.5832 8.84824 17.8069 13.8741 17.8069H16.8986V25.3478H15.7753C7.22338 23.5793 8.51932 13.2773 8.51932 13.2773Z" fill="#039BE5"/>
<path fill-rule="evenodd" clip-rule="evenodd" d="M28.3655 26.5551H19.5874V13.615C19.5874 8.75655 19.2619 8.50582 14.2887 8.50582H11.4668V0H19.5874C23.5371 0 28.3655 2.36536 28.3655 8.29767V26.5551Z" fill="url(#paint1_linear_2_6497)"/>
<path fill-rule="evenodd" clip-rule="evenodd" d="M19.2457 13.2775C19.2457 8.53951 18.9339 8.295 14.1699 8.295H11.4668V0H12.3756C20.4772 1.94688 19.2457 13.2775 19.2457 13.2775Z" fill="#039BE5"/>
<defs>
<linearGradient id="paint0_linear_2_6497" x1="0.200269" y1="15.7979" x2="16.8226" y2="15.7979" gradientUnits="userSpaceOnUse">
<stop stop-color="#40CAF5"/>
<stop offset="1" stop-color="#2ECC71"/>
</linearGradient>
<linearGradient id="paint1_linear_2_6497" x1="11.6671" y1="15.7979" x2="28.2894" y2="15.7979" gradientUnits="userSpaceOnUse">
<stop stop-color="#40CAF5"/>
<stop offset="1" stop-color="#2ECC71"/>
</linearGradient>
</defs>
</svg>
