<svg width="46" height="45" viewBox="0 0 46 45" fill="none" xmlns="http://www.w3.org/2000/svg">
<path d="M22.6406 45C35.07 45 45.1406 34.9294 45.1406 22.5C45.1406 10.0706 35.07 0 22.6406 0C10.2112 0 0.140625 10.0706 0.140625 22.5C0.140625 34.9294 10.2112 45 22.6406 45ZM10.4363 22.0125L32.13 13.6481C33.1369 13.2844 34.0163 13.8938 33.69 15.4163L33.6919 15.4144L29.9981 32.8162C29.7244 34.05 28.9913 34.35 27.9656 33.7687L22.3406 29.6231L19.6275 32.2369C19.3275 32.5369 19.0744 32.79 18.4931 32.79L18.8925 27.0656L29.3175 17.6475C29.7712 17.2481 29.2162 17.0231 28.6181 17.4206L15.735 25.5319L10.1812 23.7994C8.97563 23.4169 8.94938 22.5938 10.4363 22.0125Z" fill="url(#paint0_linear_2_6396)"/>
<defs>
<linearGradient id="paint0_linear_2_6396" x1="22.6406" y1="0" x2="22.6406" y2="45" gradientUnits="userSpaceOnUse">
<stop stop-color="#40CAF5"/>
<stop offset="1" stop-color="#2ECC71"/>
</linearGradient>
</defs>
</svg>
