<svg width="46" height="46" viewBox="0 0 46 46" fill="none" xmlns="http://www.w3.org/2000/svg">
<path d="M22.5706 0C10.1056 0 0 10.1052 0 22.5706C0 35.036 10.1056 45.1412 22.5706 45.1412C35.0356 45.1412 45.1412 35.036 45.1412 22.5706C45.1412 10.1052 35.0356 0 22.5706 0ZM34.0196 25.0117C35.0716 26.0392 36.1845 27.0062 37.1289 28.1399C37.5473 28.6415 37.9417 29.1601 38.2419 29.7433C38.6704 30.575 38.2834 31.4871 37.539 31.5365L32.915 31.5356C31.7208 31.6344 30.7704 31.1527 29.9691 30.3363C29.3295 29.6856 28.7361 28.9906 28.1201 28.3177C27.8684 28.0416 27.6033 27.7816 27.2875 27.577C26.6571 27.1669 26.1094 27.2925 25.7483 27.9511C25.3802 28.6211 25.2962 29.3637 25.2611 30.1095C25.2107 31.1998 24.8819 31.4848 23.7879 31.536C21.4503 31.6455 19.2322 31.2908 17.1707 30.1123C15.3522 29.0728 13.9446 27.6056 12.718 25.9445C10.3296 22.7064 8.5004 19.1523 6.85684 15.4962C6.48694 14.6729 6.75756 14.2323 7.66592 14.2152C9.17509 14.1861 10.6843 14.1898 12.1934 14.2138C12.8076 14.2235 13.214 14.575 13.45 15.1545C14.2655 17.161 15.2653 19.0701 16.5182 20.8407C16.8521 21.3122 17.1929 21.7823 17.6783 22.1153C18.214 22.4829 18.6222 22.3614 18.8748 21.7634C19.0364 21.3833 19.1062 20.9769 19.1413 20.5696C19.2613 19.1745 19.2756 17.7799 19.0678 16.3903C18.9385 15.5207 18.4495 14.9592 17.5827 14.7948C17.1412 14.7112 17.2058 14.5477 17.4206 14.2956C17.7933 13.8596 18.1424 13.5899 18.8402 13.5899L24.0645 13.589C24.8879 13.7506 25.0726 14.1201 25.1844 14.9495L25.189 20.7553C25.1793 21.0762 25.3502 22.0275 25.9265 22.2376C26.3883 22.39 26.6931 22.0197 26.9693 21.7273C28.2221 20.3978 29.1148 18.8286 29.9142 17.2045C30.267 16.4882 30.5713 15.747 30.8669 15.0044C31.0867 14.4553 31.4284 14.1852 32.0482 14.1944L37.0791 14.2004C37.2273 14.2004 37.3778 14.2018 37.5247 14.2272C38.3726 14.3722 38.6048 14.737 38.3425 15.5641C37.9297 16.8636 37.1275 17.9461 36.3434 19.0313C35.5029 20.1932 34.6066 21.3145 33.7744 22.4815C33.0096 23.5482 33.0701 24.0853 34.0196 25.0117Z" fill="url(#paint0_linear_2_6394)"/>
<defs>
<linearGradient id="paint0_linear_2_6394" x1="22.5706" y1="0" x2="22.5706" y2="45.1412" gradientUnits="userSpaceOnUse">
<stop stop-color="#40CAF5"/>
<stop offset="1" stop-color="#2ECC71"/>
</linearGradient>
</defs>
</svg>
